<svg id="Layer_1" data-name="Layer 1" xmlns="http://www.w3.org/2000/svg" viewBox="0 0 512 512"><defs><style>.cls-1,.cls-4{fill:#009688;}.cls-1,.cls-5,.cls-7{stroke:#444f60;stroke-miterlimit:10;}.cls-1{stroke-width:7px;}.cls-2{fill:#4bb7aa;}.cls-3{fill:#444f60;}.cls-5,.cls-7{fill:none;}.cls-5{stroke-width:6.38px;}.cls-6{fill:#616b7a;}.cls-7{stroke-width:8px;}</style></defs><path class="cls-1" d="M203.08,358.74v67.57l56,73.53a5.07,5.07,0,0,0,8.23,0l55.37-73.51V358.74Z"/><polygon class="cls-2" points="204.47 426.45 227.91 406.84 245.7 427.8 265.9 406.91 284 427.86 301.31 406.9 321.34 426.4 263.21 500.33 204.47 426.45"/><path class="cls-3" d="M227.79,408.24l16.43,19.36,1.43,1.69,1.53-1.59,18.68-19.31,16.61,19.23,1.54,1.79,1.51-1.83,15.87-19.2L320,426.49,263.2,498.72l-57.34-72.13,21.93-18.35m73.44-2.81L284,426.31l-18-20.88-20.19,20.88L228,405.43l-24.95,20.88,60.13,75.63,59.47-75.63-21.45-20.88Z"/><path class="cls-4" d="M320.75,182.21c-4.12-34.7-42.95-22.42-42.95-22.42s-3.68-3.73-14.92-3.73c-10.2,0-13.7,3.73-13.7,3.73-16.23-11-45.81-2.39-44.38,27.19s33.86,46.75,33.88,46.76h0v39.6h11.45v-45.8h0s-37-18.07-34.89-43.3c2.22-26.67,26.23-15.85,26.23-15.85s-7.4,4.64-7.56,17.64c-.28,22,13.64,22.5,13.64,22.5s14.09,1,13.08-25.36a25.64,25.64,0,0,0-4.72-14.39h0c6.73-7.16,14.4-1,14.41-1h0s-4.44,7-4.92,14.93c-1.57,25.5,13.27,25.56,13.27,25.56s11.81.08,13.45-20.79c1.07-13.63-7.37-20.94-7.37-20.94s25.55-4.62,27.67,19.81C314.29,207.85,275,229,274.94,229h0v44.37h11.45V233.27h0S324.54,214.17,320.75,182.21Zm-73.2,18.14c-3.36,0-6.08-5.6-6.08-12.5s2.72-12.5,6.08-12.5,6.07,5.6,6.07,12.5S250.9,200.35,247.55,200.35Zm31.12-1.52c-3.35,0-6.07-5.6-6.07-12.5s2.72-12.5,6.07-12.5,6.08,5.6,6.08,12.5S282,198.83,278.67,198.83Z"/><path class="cls-5" d="M373.26,194.3a110.33,110.33,0,0,1-24.61,71.22,21.13,21.13,0,0,1-16.45,7.79H191.62a18.79,18.79,0,0,1-14.45-6.79,110.78,110.78,0,0,1,87-181.39C323.77,86,372.42,134.65,373.26,194.3Z"/><rect class="cls-3" x="187.29" y="280.48" width="151.18" height="21.01" rx="10.03"/><path class="cls-6" d="M187.29,291H338.47a0,0,0,0,1,0,0v.47a10,10,0,0,1-10,10H197.32a10,10,0,0,1-10-10V291a0,0,0,0,1,0,0Z"/><rect class="cls-4" x="236.02" y="31" width="51.54" height="9.66" rx="4.61" transform="translate(225.96 297.62) rotate(-90)"/><rect class="cls-4" x="371.99" y="277.02" width="51.54" height="9.66" rx="4.61" transform="translate(479.71 762.41) rotate(-135)"/><rect class="cls-4" x="95.88" y="277.02" width="51.54" height="9.66" rx="4.61" transform="translate(406.97 395.13) rotate(135)"/><rect class="cls-4" x="357.73" y="76.41" width="51.54" height="9.66" rx="4.61" transform="translate(54.88 294.97) rotate(-45)"/><rect class="cls-4" x="398.27" y="186.33" width="51.54" height="9.66" rx="4.61"/><rect class="cls-4" x="78.09" y="186.33" width="51.54" height="9.66" rx="4.61"/><rect class="cls-4" x="119.02" y="76.41" width="51.54" height="9.66" rx="4.61" transform="translate(189.73 241.06) rotate(-135)"/><rect class="cls-3" x="187.29" y="305.56" width="151.18" height="21.01" rx="10.03"/><rect class="cls-3" x="187.29" y="330.64" width="151.18" height="21.01" rx="10.03"/><polyline class="cls-7" points="322.68 426.31 301.23 405.43 283.98 426.31 265.94 405.43 245.75 426.31 228.03 405.43 203.09 426.31"/><polygon class="cls-3" points="245.03 476.13 281.39 476.13 263.21 501.94 245.03 476.13"/><path class="cls-6" d="M187.29,316.07H338.47a0,0,0,0,1,0,0v.47a10,10,0,0,1-10,10H197.32a10,10,0,0,1-10-10v-.47A0,0,0,0,1,187.29,316.07Z"/><path class="cls-6" d="M187.29,341.15H338.47a0,0,0,0,1,0,0v.47a10,10,0,0,1-10,10H197.32a10,10,0,0,1-10-10v-.47A0,0,0,0,1,187.29,341.15Z"/></svg>