<svg version="1.1" id="dots" xmlns="http://www.w3.org/2000/svg" xmlns:xlink="http://www.w3.org/1999/xlink" x="0px" y="0px" viewBox="0 0 231.1 235" style="enable-background:new 0 0 231.1 235;" xml:space="preserve" class="flex -z-10 top-1/6 bg-no-repeat bg-cover -left-14 absolute w-1/6 stroke-secondary-7 fill-[#777] dark:fill-[#777] dark:stroke-secondary-5"><g id="Dots_group"><path class="st0" d="M143.7,52c-0.3,1.7-1.3,2.9-2.9,2.9c-1.9,0-3.1-1.3-2.9-3.2c0.2-1.6,1.3-2.7,3.1-2.6
    C142.6,49.2,143.5,50.4,143.7,52z"></path><path class="st0" d="M190.5,49c1.9,0.2,3.1,1.1,3.2,2.8c0.1,1.7-1,2.9-2.6,3.1c-1.9,0.2-3.2-1.1-3.2-3
    C187.8,50.2,189.1,49.4,190.5,49z"></path><path class="st1" d="M143.7,182.9c-0.4,1.8-1.3,3-3,3c-1.7,0-2.9-1-2.9-2.7c-0.1-1.9,1.2-3.1,3.1-3
    C142.6,180.2,143.4,181.5,143.7,182.9z"></path><path class="st2" d="M190.9,98.2c1.6,0.4,2.9,1.1,2.8,2.9c-0.1,1.7-1.1,2.8-2.8,2.8c-1.9,0-3.1-1.1-3-3.1
    C188,99.2,189.3,98.5,190.9,98.2z"></path><path class="st3" d="M5.8,183.2c-0.3,1.6-1.2,2.7-2.9,2.8c-1.8,0-2.8-1.1-2.9-2.8c-0.1-1.9,1.2-3.2,3.1-3
    C4.8,180.2,5.7,181.4,5.8,183.2z"></path><path class="st4" d="M118.6,52.1c-0.4,1.6-1.2,2.9-3,2.8c-2-0.1-3-1.4-2.8-3.3c0.2-1.6,1.3-2.7,3.1-2.5
    C117.6,49.3,118.4,50.5,118.6,52.1z"></path><path class="st5" d="M193.7,133.8c-0.1,1.9-1.2,2.8-2.8,2.9c-1.7,0.1-2.9-0.9-3-2.6c-0.1-2,1.1-3.1,3-3.1
    C192.6,131.1,193.5,132.2,193.7,133.8z"></path><path class="st0" d="M143.7,133.6c0,1.9-1.1,2.9-2.7,3.1c-1.6,0.2-3-0.7-3.2-2.4c-0.3-2,0.9-3.2,2.8-3.3
    C142.3,131,143.3,132.1,143.7,133.6z"></path><path class="st5" d="M5.8,52.1c-0.3,1.7-1.2,2.8-2.9,2.8c-2,0-3-1.4-2.9-3.3c0.2-1.6,1.3-2.7,3.1-2.5C4.8,49.3,5.7,50.4,5.8,52.1z"></path><path class="st6" d="M3.1,130.9c1.7,0.4,2.8,1.3,2.7,3c-0.1,2-1.5,3-3.3,2.7c-1.6-0.2-2.7-1.5-2.4-3.2C0.3,131.9,1.4,131,3.1,130.9
    z"></path><path class="st7" d="M143.7,101c-0.1,1.7-1.1,2.8-2.7,2.9c-1.9,0.2-3.2-1-3.2-2.9c0-1.8,1.3-2.7,2.9-2.8
    C142.3,98.2,143.4,99.3,143.7,101z"></path><path class="st8" d="M65.5,212.9c1.9,0.1,2.8,1.3,2.8,2.9c0,1.8-1.2,3.2-3.1,3c-1.6-0.2-2.6-1.4-2.5-3.1
    C62.9,213.9,63.9,213,65.5,212.9z"></path><path class="st5" d="M216.1,180c1.6,0.4,2.6,1.4,2.5,3.1c-0.1,1.7-1.1,2.8-2.8,2.8c-2,0-3.1-1.4-2.9-3.3
    C213.1,181.1,214.3,180,216.1,180z"></path><path class="st9" d="M2.9,5.7C1,5.4,0,4.4,0.1,2.7c0.1-1.7,1.2-2.8,3-2.6c1.7,0.1,2.8,1.2,2.7,3C5.7,4.8,4.4,5.6,2.9,5.7z"></path><path class="st10" d="M143.6,150.5c-0.4,1.6-1.3,2.6-3,2.5c-1.7-0.1-2.8-1-2.8-2.7c0-2,1.4-3,3.2-2.9
    C142.5,147.6,143.6,148.7,143.6,150.5z"></path><path class="st2" d="M30.9,2.7c-0.3,2.1-1.3,3.1-2.9,3c-1.6,0-2.8-1.1-2.8-2.8c0-1.9,1.2-3,3.2-2.9C30,0.1,30.6,1.5,30.9,2.7z"></path><path class="st0" d="M28.2,49c1.6,0.3,2.6,1.3,2.6,3c0,1.7-1,2.9-2.7,2.9c-1.9,0-3.1-1.3-3-3.2C25.2,50.2,26.4,49.1,28.2,49z"></path><path class="st8" d="M52.9,0c1.7,0.1,2.8,1,2.9,2.7c0.1,1.8-1,2.9-2.7,3c-1.7,0.1-2.9-0.9-3-2.6C50.2,1.4,51.1,0.2,52.9,0z"></path><path class="st7" d="M65.4,5.8c-1.6-0.4-2.8-1.2-2.7-3C62.9,1,63.9,0,65.7,0c1.8,0.1,2.7,1.3,2.7,3C68.3,4.7,67.2,5.7,65.4,5.8z"></path><path class="st9" d="M43.4,52c-0.3,1.6-1.1,2.9-2.8,2.9c-1.9,0-3-1.2-2.9-3.1c0.1-1.7,1.2-2.7,2.9-2.6C42.4,49.2,43.1,50.4,43.4,52
    z"></path><path class="st9" d="M90.5,5.7c-1.6-0.3-2.9-1.1-2.8-3C87.9,1,88.9,0,90.7,0.1c1.8,0.1,2.8,1.2,2.8,2.9C93.4,4.7,92.2,5.6,90.5,5.7
    z"></path><path class="st10" d="M50.1,52.2c0.3-1.8,1.1-3,2.8-3.1c1.7,0,2.8,1,2.9,2.7c0.1,1.9-1,3.1-2.9,3.1C51.1,54.8,50.5,53.5,50.1,52.2z
    "></path><path class="st11" d="M65.3,49c2,0.3,3,1.4,3,3c0,1.8-1.2,3.1-3.1,2.9c-1.6-0.2-2.5-1.4-2.4-3.1C62.9,50,64,49.2,65.3,49z"></path><path class="st9" d="M78.3,54.9c-1.8,0-2.9-1.1-3.1-2.6c-0.2-1.8,0.9-3.2,2.8-3.2c1.7,0,2.7,1,2.7,2.8
    C80.9,53.7,79.9,54.6,78.3,54.9z"></path><path class="st1" d="M137.8,2.8c0.2-1.6,1.1-2.7,2.8-2.7c1.9,0,3.1,1.1,3,3c-0.1,1.7-1.3,2.7-3,2.6C139,5.6,137.9,4.6,137.8,2.8z"></path><path class="st5" d="M90.5,55c-1.6-0.3-2.7-1.2-2.8-2.9c-0.1-1.7,1-2.9,2.6-3c2-0.1,3.2,1.1,3.1,3C93.4,53.8,92.3,54.8,90.5,55z"></path><path class="st8" d="M168.6,2.8c-0.2,1.7-1.1,2.9-2.8,2.9c-1.7,0.1-2.9-1-2.9-2.7c0-1.7,1-2.8,2.8-2.9C167.4,0,168.3,1.2,168.6,2.8
    z"></path><path class="st0" d="M118.6,84.7c-0.2,1.7-1.2,2.9-2.9,2.9c-1.7,0-2.8-1-2.9-2.8c-0.1-1.8,1-2.8,2.7-2.8
    C117.3,81.9,118.2,83,118.6,84.7z"></path><path class="st1" d="M190.5,0c2,0.1,3,1,3.2,2.7c0.1,1.8-1,2.8-2.6,2.9c-1.8,0.1-3.2-0.9-3.2-2.9C187.9,1.1,189.1,0.3,190.5,0z"></path><path class="st8" d="M165.6,153.1c-1.7-0.2-2.8-1.1-2.7-2.9c0.1-1.7,1.3-2.8,2.9-2.7c1.6,0.1,2.8,1.2,2.8,2.9
    C168.5,152.1,167.4,153,165.6,153.1z"></path><path class="st8" d="M143.6,84.9c-0.3,1.7-1.4,2.8-3,2.7c-1.8-0.1-3.1-1.2-2.9-3.2c0.2-1.7,1.4-2.5,3.1-2.4
    C142.6,82.2,143.5,83.2,143.6,84.9z"></path><path class="st1" d="M187.8,150.5c0.2-2,1.3-3,2.9-3.1c1.8,0,3.1,1.1,3,3c-0.1,1.7-1.3,2.6-3,2.5
    C188.9,153,188.1,151.8,187.8,150.5z"></path><path class="st3" d="M168.6,84.8c-0.3,1.7-1.3,2.8-3,2.8c-1.6-0.1-2.8-1.2-2.8-2.9c0.1-1.7,1.1-2.8,2.9-2.7
    C167.6,82,168.5,83.1,168.6,84.8z"></path><path class="st5" d="M27.9,180c1.7,0.2,2.8,1.1,2.9,2.8c0.1,1.7-0.8,2.9-2.5,3.1c-2,0.2-3.2-1.1-3.2-3
    C25.1,181.3,26.2,180.3,27.9,180z"></path><path class="st8" d="M193.7,84.3c-0.1,2.1-1.2,3.1-2.7,3.2c-1.8,0.1-3.2-1-3.1-3c0.1-1.7,1.2-2.6,2.9-2.6
    C192.5,82,193.4,83,193.7,84.3z"></path><path class="st2" d="M218.7,51.6c-0.2,1.9-1,3.2-2.7,3.3c-1.9,0.1-3.1-1.2-3.1-3c0-1.6,1.1-2.8,2.8-2.8
    C217.6,49.1,218.3,50.4,218.7,51.6z"></path><path class="st3" d="M55.9,19.5c-0.2,1.6-1.2,2.6-2.9,2.6c-1.8,0-2.8-1.2-2.8-2.8c0-1.9,1.2-3.2,3.1-3
    C54.8,16.5,55.9,17.7,55.9,19.5z"></path><path class="st12" d="M40.6,180.1c1.7,0.3,2.8,1.3,2.8,3c-0.1,1.9-1.2,3.1-3.2,2.9c-1.7-0.2-2.6-1.4-2.4-3.1
    C37.9,181.1,38.9,180.2,40.6,180.1z"></path><path class="st13" d="M53.1,185.9c-1.8-0.2-2.8-1.2-2.8-2.8c-0.1-1.6,0.9-2.9,2.6-3c1.9-0.1,3,1.1,3,3
    C55.8,184.9,54.7,185.7,53.1,185.9z"></path><path class="st11" d="M90.5,22.1c-1.6-0.2-2.7-1.1-2.7-2.8c-0.1-1.8,1.1-2.9,2.7-2.9c1.9-0.1,3.1,1.2,3.1,3.1
    C93.4,21,92.3,22.1,90.5,22.1z"></path><path class="st10" d="M68.4,183.1c-0.4,1.5-1,2.8-2.8,2.8c-1.7,0-2.8-1.1-2.8-2.7c-0.1-1.9,1-3.2,2.9-3.1
    C67.5,180.2,68.2,181.5,68.4,183.1z"></path><path class="st14" d="M2.7,98.1c1.7,0.3,3,1,3.1,2.8c0,2-1.1,3.1-3,3c-1.7,0-2.7-1.2-2.7-2.9C0,99.2,1.4,98.6,2.7,98.1z"></path><path class="st15" d="M80.9,183.2c-0.1,1.6-1,2.6-2.7,2.7c-1.8,0-2.8-1.2-2.9-2.7c-0.1-1.8,1.1-3.2,3-3
    C79.9,180.2,80.9,181.3,80.9,183.2z"></path><path class="st7" d="M143.7,19c-0.3,1.9-1.1,3-2.9,3.1c-1.8,0.1-2.9-0.9-3-2.6c-0.1-2,1.1-3.2,3-3.2
    C142.5,16.4,143.3,17.6,143.7,19z"></path><path class="st9" d="M90.4,186c-1.6-0.4-2.7-1.3-2.6-3.1c0.1-1.7,1.1-2.8,2.8-2.8c1.9,0,3.1,1.4,2.9,3.2
    C93.3,184.9,92.1,185.9,90.4,186z"></path><path class="st14" d="M165.9,22.2c-2-0.2-3-1.3-3-2.9c0.1-1.9,1.3-3.1,3.2-2.9c1.6,0.2,2.7,1.4,2.5,3.1
    C168.4,21.1,167.3,22,165.9,22.2z"></path><path class="st0" d="M190.5,22.1c-1.6-0.3-2.8-1.3-2.6-3c0.2-1.9,1.5-3.1,3.4-2.8c1.6,0.3,2.7,1.5,2.4,3.2
    C193.4,21.3,192.3,22.2,190.5,22.1z"></path><path class="st8" d="M115.6,180c1.7,0.2,2.8,1.3,2.9,2.9c0,1.9-1.1,3.1-3.1,3c-1.7-0.1-2.6-1.3-2.6-3
    C112.9,181.2,113.9,180.3,115.6,180z"></path><path class="st12" d="M193.7,183.2c-0.3,1.6-1.2,2.7-3,2.7c-1.7,0-2.8-1.1-2.8-2.8c0-1.9,1.3-3.1,3.2-3
    C192.7,180.3,193.6,181.5,193.7,183.2z"></path><path class="st3" d="M2.9,212.8c1.7,0.1,2.8,1,2.9,2.7c0.1,1.9-1.1,3.2-3,3.1c-1.7,0-2.7-1.3-2.7-3C0.1,214,1.1,213,2.9,212.8z"></path><path class="st13" d="M53.3,212.9c1.6,0.3,2.7,1.3,2.5,3c-0.1,1.8-1.3,2.8-3,2.7c-1.7-0.1-2.8-1.3-2.6-3
    C50.4,214,51.3,212.9,53.3,212.9z"></path><path class="st12" d="M93.6,215.5c-0.1,1.7-1,2.9-2.6,3.1c-1.9,0.2-3.1-0.9-3.2-2.9c0-1.7,1-2.8,2.7-2.8
    C92.2,212.8,93.1,214,93.6,215.5z"></path><path class="st1" d="M143.7,215.8c-0.3,1.7-1.3,2.9-3,2.8c-1.9,0-3.1-1.3-2.9-3.2c0.2-1.6,1.3-2.7,3.1-2.5
    C142.6,213.1,143.5,214.2,143.7,215.8z"></path><path class="st0" d="M165.7,218.8c-1.6-0.3-2.8-1.3-2.8-2.9c0-1.7,0.9-2.9,2.7-2.9c2-0.1,3.1,1.1,3,3
    C168.5,217.6,167.3,218.5,165.7,218.8z"></path><path class="st11" d="M190.8,212.8c1.7,0.1,2.8,1,2.9,2.8c0.1,1.8-1.1,2.9-2.6,3c-1.9,0.2-3.2-1-3.2-3
    C187.9,214,189,213,190.8,212.8z"></path><path class="st16" d="M55.9,232.2c-0.1,1.6-1,2.7-2.8,2.8c-1.8,0.1-2.8-1.1-2.9-2.7c-0.1-1.7,1-2.9,2.7-2.9
    C54.6,229.4,55.7,230.3,55.9,232.2z"></path><path class="st7" d="M168.7,101.1c-0.2,1.6-1.1,2.8-2.8,2.8c-1.9,0.1-3.1-1.1-3-3c0.1-1.7,1.3-2.7,2.9-2.7
    C167.4,98.3,168.4,99.4,168.7,101.1z"></path><path class="st10" d="M93.6,232.3c-0.5,1.5-1.3,2.7-3,2.6c-2-0.1-3-1.3-2.8-3.2c0.2-1.7,1.5-2.5,3.1-2.4
    C92.5,229.5,93.5,230.6,93.6,232.3z"></path><path class="st17" d="M140.5,235c-1.7-0.3-2.7-1.2-2.7-2.9c0-1.7,1.2-2.7,2.8-2.7c1.9,0,3.2,1.2,2.9,3.1
    C143.4,234.1,142.2,235,140.5,235z"></path><path class="st7" d="M218.7,100.9c-0.1,1.7-0.9,2.9-2.5,3.1c-2,0.2-3.1-1-3.2-2.9c-0.1-1.7,1.2-2.8,2.8-2.8
    C217.4,98.2,218.4,99.2,218.7,100.9z"></path><path class="st15" d="M168.7,232c-0.3,1.7-1,2.9-2.8,3c-1.8,0.1-2.9-1-3-2.7c-0.1-1.7,1.1-2.8,2.7-2.9
    C167.4,229.2,168.3,230.4,168.7,232z"></path><path class="st11" d="M2.8,87.7c-1.8-0.4-2.9-1.4-2.8-3.1c0.1-1.7,1.3-2.7,3-2.6c1.7,0.1,2.8,1.2,2.7,2.9
    C5.6,86.7,4.4,87.4,2.8,87.7z"></path><path class="st17" d="M193.7,232.2c-0.2,1.6-1.1,2.7-2.8,2.8c-1.9,0.1-3.1-1.1-3-3c0.1-1.7,1.3-2.7,2.9-2.6
    C192.4,229.4,193.5,230.4,193.7,232.2z"></path><path class="st10" d="M30.8,215.7c-0.1,1.8-1.1,2.9-2.7,2.9c-1.9,0-3.1-1.3-3-3.1c0.1-1.5,1.2-2.7,3-2.6
    C29.9,213,30.6,214.1,30.8,215.7z"></path><path class="st7" d="M116,136.8c-1.8-0.1-2.9-0.9-3.2-2.6c-0.2-1.7,0.7-2.9,2.4-3.2c2-0.3,3.1,0.9,3.3,2.7
    C118.7,135.5,117.3,136.3,116,136.8z"></path><path class="st7" d="M165.6,136.8c-1.6-0.4-2.8-1.2-2.8-3c0-1.7,1.1-2.8,2.7-2.8c1.9,0,3.1,1.2,3,3.1
    C168.5,135.8,167.2,136.6,165.6,136.8z"></path><path class="st9" d="M2.9,147.3c1.6,0.3,2.8,1,2.9,2.8c0.1,1.8-1,2.8-2.8,2.9c-1.8,0.1-2.9-1-3-2.7C0,148.5,1.2,147.7,2.9,147.3z"></path><path class="st3" d="M80.8,84c0.1,2.4-0.9,3.5-2.5,3.6c-1.7,0.1-2.9-0.9-3.1-2.6c-0.1-1.7,0.8-2.8,2.6-3
    C79.6,81.8,80.6,82.8,80.8,84z"></path><path class="st8" d="M43.4,150.3c-0.3,1.6-1.1,2.8-2.9,2.8c-1.8,0-2.8-1-2.8-2.8c0-1.8,1.2-2.8,2.8-2.8
    C42.2,147.4,43.2,148.5,43.4,150.3z"></path><path class="st8" d="M115.5,147.3c2,0.5,3.1,1.4,3,3.1c-0.1,1.6-1.2,2.7-3,2.6c-1.8-0.1-2.7-1.2-2.7-2.9
    C112.9,148.3,114.3,147.7,115.5,147.3z"></path><path class="st11" d="M43.5,2.6c-0.4,2.1-1.4,3.2-3.1,3c-1.6-0.1-2.8-1.1-2.6-3c0.2-1.7,1.2-2.7,3-2.6C42.6,0.1,43,1.6,43.5,2.6z"></path><path class="st8" d="M78.2,0c1.7,0.2,2.7,1.1,2.6,2.9c0,1.8-1.1,2.8-2.8,2.7c-1.7-0.1-2.9-1.2-2.8-2.9C75.3,1.2,76.4,0.1,78.2,0z"></path><path class="st10" d="M40.4,169.4c-1.7-0.2-2.8-1.1-2.7-2.9c0.1-1.8,1.2-2.7,3-2.6c1.8,0.1,2.7,1.3,2.7,2.9
    C43.3,168.5,42.1,169.4,40.4,169.4z"></path><path class="st10" d="M118.5,3c-0.4,1.7-1.3,2.9-3.1,2.7c-1.6-0.2-2.8-1.2-2.6-3c0.2-1.7,1.2-2.7,3-2.6
    C117.6,0.2,118.3,1.4,118.5,3z"></path><path class="st8" d="M80.8,68.7c-0.1,1.5-1.1,2.5-2.9,2.5c-1.8-0.1-2.8-1.2-2.7-2.9c0-1.7,1.2-2.7,2.9-2.7
    C79.9,65.7,80.9,66.6,80.8,68.7z"></path><path class="st0" d="M216.1,131c1.6,0.3,2.6,1.2,2.6,2.9c0,1.7-1.1,2.8-2.7,2.8c-1.9,0-3.1-1.3-2.9-3.1
    C213.1,132.1,214.2,131,216.1,131z"></path><path class="st15" d="M68.4,101.1c-0.3,1.5-1,2.8-2.7,2.9c-1.8,0.1-2.8-1-2.9-2.7c-0.1-1.8,1-2.8,2.7-2.9
    C67.1,98.2,68.1,99.3,68.4,101.1z"></path><path class="st1" d="M78.2,98.2c1.6,0.4,2.8,1.2,2.6,3c-0.2,1.8-1.2,2.8-2.9,2.7c-1.7-0.1-2.8-1.3-2.7-3
    C75.3,99.2,76.6,98.4,78.2,98.2z"></path><path class="st10" d="M218.7,3c-0.3,1.8-1.3,2.8-3,2.7c-1.7-0.1-2.8-1.3-2.7-3c0.1-1.6,1.2-2.8,3-2.7C217.8,0.2,218.5,1.3,218.7,3z
    "></path><path class="st8" d="M93.6,101c-0.1,1.6-1,2.8-2.6,3c-1.9,0.2-3.1-0.9-3.2-2.8c-0.1-1.8,1.2-2.7,2.8-2.8
    C92.1,98.2,93.2,99.3,93.6,101z"></path><path class="st14" d="M2.8,16.2c1.8,0.4,3,1.2,3,2.9c0,2-1.1,3.1-3.1,3c-1.8-0.1-2.6-1.3-2.6-3C0.1,17.4,1.4,16.6,2.8,16.2z"></path><path class="st16" d="M5.9,166.5c-0.3,2.1-1.4,3-3.1,2.9c-1.8-0.1-2.8-1.2-2.7-2.9c0.1-1.7,1.2-2.7,3-2.6
    C4.9,163.9,5.5,165.2,5.9,166.5z"></path><path class="st0" d="M30.8,19.5c-0.3,1.6-1.1,2.7-2.9,2.6c-1.7-0.1-2.8-1.2-2.8-2.8c0-1.9,1.3-3.1,3.2-2.9
    C29.9,16.5,30.8,17.7,30.8,19.5z"></path><path class="st9" d="M40.5,16.3c1.7,0.3,2.8,1.2,2.8,2.9c0,1.9-1.2,3.1-3.1,2.9c-1.7-0.1-2.6-1.3-2.5-3
    C37.8,17.3,38.9,16.6,40.5,16.3z"></path><path class="st8" d="M65.4,22.1c-1.7-0.2-2.7-1.2-2.6-3c0-1.7,1.1-2.8,2.8-2.8c1.7,0,2.8,1.3,2.7,3C68.3,20.9,67.3,22.1,65.4,22.1z
    "></path><path class="st8" d="M78.3,22.1c-1.9,0-2.9-1.1-3-2.6c-0.1-1.8,1.1-3.2,3-3.1c1.6,0.1,2.7,1.1,2.6,2.9C80.8,21,79.9,21.9,78.3,22.1
    z"></path><path class="st10" d="M93.6,150.2c-0.2,1.6-1.1,2.8-2.9,2.8c-1.7,0-2.9-0.9-2.9-2.7c-0.1-1.8,1.1-2.8,2.8-2.9
    C92.2,147.4,93.2,148.5,93.6,150.2z"></path><path class="st0" d="M118.5,19.5c-0.5,1.5-1.2,2.7-3,2.7c-1.7-0.1-2.7-1.2-2.7-2.8c0-1.9,1.2-3.1,3.1-2.9
    C117.6,16.5,118.4,17.8,118.5,19.5z"></path><path class="st10" d="M3.1,71.2c-1.9,0-2.9-1-3-2.7c-0.1-1.8,1-2.8,2.7-2.8c1.7,0,2.9,0.9,2.9,2.6C5.8,70,4.7,71,3.1,71.2z"></path><path class="st1" d="M55.9,150.4c-0.2,1.7-1.2,2.7-2.9,2.6c-1.8,0-2.8-1.1-2.7-2.8c0.1-1.7,1.2-2.8,2.9-2.7
    C54.7,147.5,55.8,148.5,55.9,150.4z"></path><path class="st15" d="M53,98.2c1.5,0.3,2.8,1,2.8,2.8c0,1.8-1,2.8-2.7,2.9c-1.8,0.1-2.8-1.1-2.9-2.7C50.1,99.5,51.3,98.6,53,98.2z"></path><path class="st0" d="M218.7,19.5c-0.3,1.6-1.1,2.7-2.9,2.6c-1.7-0.1-2.8-1.2-2.8-2.8c0-1.8,1.2-3.1,3.1-3
    C217.7,16.5,218.6,17.7,218.7,19.5z"></path><path class="st2" d="M118.6,101.2c-0.4,1.5-1.1,2.8-2.9,2.8c-2,0-3-1.2-2.9-3.1c0.1-1.7,1.3-2.7,3-2.6
    C117.4,98.4,118.4,99.5,118.6,101.2z"></path><path class="st11" d="M27.9,147.3c1.6,0.3,2.8,1.1,2.8,2.9c0,1.8-1,2.8-2.8,2.8c-1.8,0-2.9-1.1-2.9-2.7
    C25,148.5,26.3,147.7,27.9,147.3z"></path><path class="st0" d="M30.8,84.3c0,2.1-1.1,3.1-2.7,3.3c-1.7,0.1-2.9-1-3-2.7C25,83.2,26,82.1,27.8,82C29.6,81.8,30.5,83,30.8,84.3z
    "></path><path class="st8" d="M40.6,87.6c-1.5-0.2-2.8-0.9-2.9-2.7c-0.1-1.8,0.9-2.8,2.6-2.9c1.8-0.1,2.9,1,3.1,2.6
    C43.5,86.3,42.4,87.3,40.6,87.6z"></path><path class="st0" d="M52.9,81.9c1.7,0.1,2.8,0.9,2.9,2.7c0.1,1.8-1.2,2.8-2.8,2.9c-1.7,0.1-2.9-1-2.9-2.7
    C50.2,83.2,51.1,82.1,52.9,81.9z"></path><path class="st11" d="M68.5,84.6c-0.4,2-1.5,3.1-3.1,3c-1.6-0.2-2.7-1.3-2.6-3.1c0.1-1.7,1.2-2.6,3-2.5
    C67.6,82.1,68.1,83.5,68.5,84.6z"></path><path class="st9" d="M90.4,87.6c-1.6-0.4-2.8-1.2-2.7-3.1c0.1-1.8,1.3-2.7,3-2.6c1.7,0.1,2.8,1.2,2.7,2.9
    C93.4,86.7,92.1,87.5,90.4,87.6z"></path><path class="st11" d="M103.3,87.7c-1.9-0.2-2.9-1.1-2.9-2.9c0-1.7,0.9-2.8,2.7-2.8c1.7,0,2.8,1,2.8,2.7
    C105.9,86.6,104.7,87.2,103.3,87.7z"></path><path class="st1" d="M228.2,153c-1.6-0.2-2.7-1.1-2.6-2.9c0-1.8,1.2-2.7,2.9-2.7c1.7,0,2.7,1.1,2.7,2.9
    C231.1,152.1,230.1,153,228.2,153z"></path><path class="st11" d="M218.7,150.2c-0.1,1.7-1,2.8-2.8,2.9c-1.8,0-2.9-1-3-2.7c-0.1-1.7,1.1-2.9,2.8-2.9
    C217.4,147.4,218.4,148.5,218.7,150.2z"></path><path class="st1" d="M80.9,150c0,1.9-0.8,2.9-2.6,3c-1.8,0.1-2.9-1-3-2.6c-0.1-1.7,1-2.9,2.7-3C79.6,147.4,80.7,148.3,80.9,150z"></path><path class="st0" d="M215.6,81.9c1.8,0,2.9,0.9,3,2.6c0.1,1.8-1,2.9-2.7,3c-1.7,0.2-2.9-1-3-2.7C212.8,83.2,213.9,82.2,215.6,81.9z
    "></path><path class="st7" d="M30.8,100.7c-0.1,1.9-0.9,3.1-2.6,3.3c-1.9,0.2-3.1-1-3.2-2.9c0-1.7,1.2-2.7,2.8-2.8
    C29.6,98.2,30.5,99.3,30.8,100.7z"></path><path class="st16" d="M40.3,98.2c1.8,0.2,3,1,3.1,2.7c0.1,1.7-1,2.9-2.7,3c-1.7,0.1-2.8-0.9-3-2.7C37.5,99.4,38.8,98.7,40.3,98.2z"></path><path class="st0" d="M30.8,134c-0.2,1.7-1.3,2.8-2.9,2.7c-1.6,0-2.8-1.1-2.8-2.8c0-1.9,1.2-3.1,3.1-2.9
    C29.9,131.1,30.7,132.3,30.8,134z"></path><path class="st10" d="M40.2,131c1.8,0,3,1,3.1,2.7c0.2,1.7-1,2.9-2.7,3c-1.7,0.1-2.9-0.8-3-2.6C37.6,132.3,38.6,131.4,40.2,131z"></path><path class="st16" d="M52.9,136.8c-1.8-0.4-2.9-1.3-2.7-3.1c0.2-1.6,1.2-2.8,3-2.6c1.7,0.2,2.7,1.2,2.6,3
    C55.7,135.9,54.4,136.5,52.9,136.8z"></path><path class="st10" d="M115.9,218.8c-1.8-0.2-2.9-1.1-3.1-2.7c-0.2-1.7,0.7-2.9,2.4-3.1c2-0.3,3.1,1,3.3,2.8
    C118.6,217.4,117.4,218.3,115.9,218.8z"></path><path class="st1" d="M65.3,131c2.1,0.3,3.1,1.3,3.1,3c0,1.7-1.2,2.8-2.9,2.8c-1.7,0-2.8-1.1-2.7-2.9C62.8,132.1,64,131.3,65.3,131z
    "></path><path class="st1" d="M65.4,153.1c-1.7-0.1-2.7-1.1-2.7-2.8c0-1.8,1.1-2.8,2.8-2.8c1.7,0,2.8,1.2,2.8,2.8
    C68.3,151.9,67.3,153,65.4,153.1z"></path><path class="st16" d="M43.4,215.8c-0.3,1.7-1.2,2.9-2.9,2.9c-1.9-0.1-3-1.3-2.8-3.2c0.2-1.7,1.3-2.6,3-2.5
    C42.5,213.1,43.2,214.3,43.4,215.8z"></path><path class="st13" d="M80.8,133.7c0,2.1-1.2,3-2.8,3c-1.7,0-2.9-1.1-2.8-2.9c0.1-1.6,1.1-2.8,2.9-2.8
    C79.9,131.1,80.8,132.2,80.8,133.7z"></path><path class="st16" d="M78.2,218.7c-1.7-0.1-2.8-1.1-3-2.7c-0.1-1.9,0.9-3.1,2.9-3.1c1.7,0,2.6,1,2.7,2.8
    C80.9,217.5,79.8,218.3,78.2,218.7z"></path><path class="st0" d="M90.7,136.8c-1.5-0.2-2.8-0.8-3-2.6c-0.2-1.7,0.8-2.9,2.4-3.1c1.9-0.3,3.2,0.9,3.4,2.7
    C93.7,135.6,92.3,136.4,90.7,136.8z"></path><path class="st10" d="M218.7,216c-0.4,1.6-1.3,2.8-3,2.7c-1.9-0.1-3-1.5-2.7-3.3c0.2-1.6,1.4-2.6,3.1-2.4
    C217.9,213.1,218.6,214.3,218.7,216z"></path><path class="st1" d="M2.9,229.3c1.6,0.3,2.8,1,2.8,2.8c0,1.9-1.2,3-3.1,2.9c-1.7-0.1-2.6-1.3-2.6-2.9
    C0.1,230.3,1.3,229.4,2.9,229.3z"></path><path class="st17" d="M28.1,235c-1.8-0.1-2.9-1.1-3-2.7c-0.1-1.7,1-2.9,2.7-2.9c1.7,0,2.9,0.9,2.9,2.7
    C30.8,233.8,29.8,234.8,28.1,235z"></path><path class="st15" d="M40.4,235c-1.7-0.2-2.7-1.1-2.7-2.9c0-1.8,1.1-2.8,2.8-2.8c1.7,0,2.9,1.1,2.8,2.8
    C43.3,233.8,42.3,234.9,40.4,235z"></path><path class="st12" d="M65.3,229.2c2.1,0.3,3.2,1.4,3,3.1c-0.2,1.6-1.2,2.8-3,2.6c-1.8-0.1-2.6-1.3-2.6-3
    C62.8,230.1,64.1,229.5,65.3,229.2z"></path><path class="st15" d="M78,229.3c1.6,0.3,2.8,0.9,2.8,2.8c0,1.8-0.9,2.8-2.7,2.9c-1.8,0-2.8-1.1-2.9-2.8
    C75.1,230.5,76.3,229.5,78,229.3z"></path><path class="st18" d="M118.6,232.2c-0.5,1.7-1.3,2.9-3.1,2.7c-1.8-0.1-2.7-1.3-2.6-3c0.1-1.7,1.2-2.7,3-2.6
    C117.5,229.4,118.3,230.7,118.6,232.2z"></path><path class="st18" d="M215.8,229.2c1.8,0.4,3,1.3,2.8,3.1c-0.2,1.7-1.2,2.8-3,2.6c-1.7-0.1-2.7-1.3-2.6-3
    C213.1,230.3,214.3,229.4,215.8,229.2z"></path><path class="st10" d="M168.7,52c-0.5,1.7-1.3,3-3.1,2.9c-1.9-0.2-3-1.5-2.7-3.4c0.2-1.5,1.4-2.7,3.1-2.4
    C167.8,49.3,168.4,50.6,168.7,52z"></path><path class="st16" d="M178.1,54.9c-1.7-0.4-2.7-1.4-2.6-3.1c0.1-1.7,1.2-2.8,2.9-2.7c1.8,0.1,2.6,1.3,2.5,3.1
    C180.8,54,179.8,54.8,178.1,54.9z"></path><path class="st15" d="M203.3,49.1c1.7,0.3,2.7,1.2,2.7,3c0,1.7-1,2.9-2.7,2.9c-1.7,0-2.7-1.2-2.7-2.9
    C200.6,50.2,201.6,49.3,203.3,49.1z"></path><path class="st15" d="M231.1,51.7c-0.1,1.7-0.8,3-2.5,3.1c-1.7,0.1-2.8-0.9-3-2.7c-0.1-1.8,0.8-2.9,2.5-3.1
    C229.9,48.9,230.8,50.1,231.1,51.7z"></path><path class="st15" d="M80.8,166.1c0.1,2.1-0.8,3.1-2.6,3.3c-1.7,0.1-2.9-0.8-3-2.5c-0.1-1.7,0.8-2.8,2.6-3
    C79.6,163.8,80.6,164.7,80.8,166.1z"></path><path class="st1" d="M103.2,65.6c1.3,0,2.6,0.7,2.7,2.5c0.1,1.8-0.8,2.8-2.5,3c-1.8,0.2-2.8-0.8-3-2.5
    C100.2,66.9,101,65.8,103.2,65.6z"></path><path class="st16" d="M5.8,118c-0.5,1.6-1.7,2.5-3.3,2.2c-1.7-0.3-2.6-1.4-2.3-3.2c0.3-1.7,1.6-2.5,3.3-2.2
    C5.1,115.1,5.9,116.2,5.8,118z"></path><path class="st13" d="M55.9,166.2c-0.1,2.1-1.1,3.1-2.8,3.1c-1.8,0.1-2.9-0.9-2.9-2.6c0-1.6,0.9-2.8,2.7-2.9
    C54.7,163.8,55.5,164.9,55.9,166.2z"></path><path class="st13" d="M15.4,169.4c-1.4-0.1-2.6-0.8-2.7-2.6c-0.1-1.7,0.8-2.8,2.5-3c1.8-0.1,2.8,0.9,2.9,2.6
    C18.3,168.1,17.5,169.3,15.4,169.4z"></path><path class="st1" d="M231.1,69.5c0,0.3-0.6,1.5-2.5,1.7c-1.8,0.1-2.9-0.8-3-2.5c-0.2-1.8,0.8-2.9,2.5-3
    C229.7,65.5,231,66.2,231.1,69.5z"></path><path class="st15" d="M203.2,136.8c-1.7-0.3-2.7-1.2-2.7-3c0.1-1.7,1.1-2.8,2.8-2.7c1.7,0.1,2.7,1.2,2.7,2.9
    C206,135.7,204.9,136.5,203.2,136.8z"></path><path class="st13" d="M140.5,114.8c1.8,0.1,3,0.9,3.1,2.6c0.1,1.7-1,2.7-2.7,2.8c-1.7,0.1-2.9-0.8-3-2.5
    C137.7,115.9,138.9,115,140.5,114.8z"></path><path class="st15" d="M143.6,68.5c-0.4,1.6-1.3,2.7-3.1,2.6c-1.8-0.1-2.8-1.1-2.8-2.8c0-1.8,1.2-2.7,3-2.6
    C142.5,65.7,143.5,66.7,143.6,68.5z"></path><path class="st1" d="M168.7,68.4c-0.4,1.7-1.2,2.9-3,2.8c-1.8-0.1-2.8-1.2-2.7-2.9c0-1.7,1.2-2.7,2.9-2.7
    C167.6,65.7,168.4,66.8,168.7,68.4z"></path><path class="st15" d="M190.7,65.6c1.6,0.1,2.9,0.8,2.9,2.6c0.1,1.7-1,2.8-2.7,2.9c-1.8,0.1-2.9-0.9-3-2.6
    C187.7,66.8,188.9,65.9,190.7,65.6z"></path><path class="st9" d="M15.6,71.2c-1.7,0-2.8-0.9-2.9-2.6c-0.2-1.7,0.8-2.9,2.5-3c1.7-0.1,2.9,0.7,2.9,2.5
    C18.3,69.8,17.5,71,15.6,71.2z"></path><path class="st9" d="M103.4,0c1.6,0.3,2.6,1.3,2.4,3.1c-0.1,1.8-1.3,2.7-3,2.6c-1.8-0.1-2.7-1.3-2.5-3C100.5,0.9,101.5,0,103.4,0z"></path><path class="st1" d="M128.1,0c1.9,0.2,2.8,1.2,2.8,3c0,1.9-1.1,2.8-2.8,2.7c-1.7-0.1-2.7-1.1-2.7-2.9C125.5,1.1,126.6,0.2,128.1,0z
    "></path><path class="st1" d="M156,2.9c-0.2,2-1.3,2.9-2.9,2.8c-1.7-0.1-2.7-1.2-2.5-3c0.1-1.7,1.1-2.8,2.9-2.6C155.1,0.2,155.9,1.3,156,2.9
    z"></path><path class="st1" d="M15.6,22.1c-1.7-0.1-2.8-1-2.9-2.7c-0.1-1.7,0.9-2.9,2.6-3c1.7-0.1,2.7,1,2.8,2.7
    C18.2,20.8,17.4,21.9,15.6,22.1z"></path><path class="st1" d="M55.9,68.3c-0.3,1.9-1.2,2.8-3,2.8c-1.8,0-2.7-1.2-2.7-2.8c0-1.7,1.1-2.7,2.9-2.7
    C54.8,65.7,55.8,66.7,55.9,68.3z"></path><path class="st10" d="M130.9,19.2c0,1.8-0.9,2.9-2.6,2.9c-1.8,0.1-2.8-1-2.8-2.8c-0.1-1.7,1-2.9,2.7-3
    C129.8,16.3,130.8,17.3,130.9,19.2z"></path><path class="st10" d="M156,19.5c-0.3,1.6-1.2,2.7-3,2.5c-1.8-0.1-2.6-1.3-2.5-3c0.1-1.8,1.2-2.8,2.9-2.7
    C155.1,16.5,156,17.7,156,19.5z"></path><path class="st1" d="M206.1,19.3c-0.1,1.6-0.9,2.7-2.7,2.8c-1.8,0.1-2.7-1-2.8-2.8c-0.1-1.8,1-2.9,2.6-3
    C204.9,16.3,205.9,17.4,206.1,19.3z"></path><path class="st15" d="M5.8,35.8c-0.4,1.7-1.3,2.7-3.1,2.6c-1.7-0.1-2.8-1.2-2.6-3c0.1-1.7,1.3-2.7,3-2.6C4.9,33,5.7,34.1,5.8,35.8z
    "></path><path class="st13" d="M191.2,120.2c-2-0.1-3.2-0.9-3.3-2.6c-0.1-1.7,1-2.7,2.7-2.9c1.7-0.1,2.9,0.8,3.1,2.5
    C193.8,119.2,192.5,119.9,191.2,120.2z"></path><path class="st16" d="M130.9,101.1c0,1.8-1,2.8-2.7,2.9c-1.7,0-2.7-1.1-2.8-2.8c-0.1-1.8,1.1-2.8,2.7-2.9
    C129.8,98.3,130.9,99.2,130.9,101.1z"></path><path class="st10" d="M28.2,32.8c1.7,0.3,2.6,1.3,2.5,3c-0.1,1.7-1.3,2.7-3,2.6c-1.7-0.1-2.8-1.3-2.6-3
    C25.3,33.8,26.4,32.8,28.2,32.8z"></path><path class="st12" d="M231.1,84.7c-0.1,1.8-1,2.9-2.7,2.9c-1.6,0-2.8-1-2.8-2.7c0-1.8,1-2.7,2.7-2.8C230.1,82,230.9,83,231.1,84.7z
    "></path><path class="st12" d="M18.2,101.2c-0.2,1.6-1,2.8-2.7,2.8c-1.7,0-2.7-1.1-2.8-2.8c-0.1-1.8,1.1-2.8,2.7-2.9
    C17.1,98.2,18.1,99.3,18.2,101.2z"></path><path class="st18" d="M130.9,215.9c-0.1,1.9-1.2,2.8-2.9,2.7c-1.7-0.1-2.7-1.3-2.6-3c0.1-1.7,1.1-2.8,2.9-2.7
    C130.2,213,130.9,214.2,130.9,215.9z"></path><path class="st16" d="M153.3,98.2c1.6,0.4,2.8,1.2,2.7,3c-0.1,1.7-1.2,2.8-2.9,2.7c-1.7-0.1-2.6-1.2-2.6-2.9
    C150.5,99.2,151.7,98.4,153.3,98.2z"></path><path class="st12" d="M168.7,117.2c-0.2,1.9-1.1,2.9-2.8,3c-1.7,0.1-2.9-0.9-3-2.6c-0.1-1.7,1-2.7,2.7-2.8
    C167.4,114.7,168.2,115.8,168.7,117.2z"></path><path class="st12" d="M228.2,169.4c-1.5-0.1-2.7-0.9-2.7-2.7c0-1.7,1-2.8,2.7-2.8c1.8-0.1,2.7,1,2.8,2.7
    C231.2,168.4,230.2,169.3,228.2,169.4z"></path><path class="st10" d="M55.9,117.4c-0.1,1.8-1.1,2.7-2.8,2.8c-1.8,0.1-2.9-1-2.9-2.6c-0.1-1.7,1-2.8,2.7-2.8
    C54.6,114.8,55.6,115.7,55.9,117.4z"></path><path class="st18" d="M15.4,180c1.7,0.2,2.7,1.2,2.7,3c0,1.7-0.9,2.9-2.7,2.9c-1.7,0-2.7-1.1-2.7-2.9
    C12.7,181.3,13.8,180.3,15.4,180z"></path><path class="st15" d="M218.7,117.6c-0.3,1.7-1.3,2.7-3,2.6c-1.7-0.1-2.8-1.2-2.7-2.8c0.1-1.7,1.2-2.7,3-2.6
    C217.7,114.9,218.5,115.9,218.7,117.6z"></path><path class="st15" d="M93.6,117.5c-0.3,1.6-1.2,2.7-3,2.7c-1.7,0-2.9-0.9-2.9-2.7c0-1.7,1.1-2.7,2.9-2.7
    C92.4,114.8,93.3,115.9,93.6,117.5z"></path><path class="st15" d="M18.2,133.6c0,1.8-0.9,3-2.6,3.1c-1.7,0.1-2.8-0.8-2.9-2.6c-0.1-1.7,0.8-2.9,2.5-3
    C17,130.9,17.9,132.1,18.2,133.6z"></path><path class="st17" d="M191,163.8c1.7,0.3,2.7,1.3,2.6,3c-0.1,1.8-1.4,2.6-3.1,2.5c-1.7-0.1-2.8-1.1-2.6-2.9
    C188.1,164.7,189.3,163.8,191,163.8z"></path><path class="st18" d="M105.9,183.2c-0.2,1.7-1.1,2.7-2.9,2.7c-1.8,0-2.7-1.2-2.6-2.9c0-1.7,1-2.9,2.8-2.8
    C104.8,180.2,105.9,181.3,105.9,183.2z"></path><path class="st15" d="M168.6,166.5c-0.1,1.7-1,2.8-2.7,2.9c-1.7,0.1-2.9-0.8-3-2.6c-0.1-1.7,0.9-2.8,2.7-2.9
    C167.4,163.7,168.2,164.8,168.6,166.5z"></path><path class="st19" d="M128,185.9c-1.7-0.3-2.7-1.3-2.6-3.1c0.1-1.7,1.2-2.8,2.9-2.7c1.7,0.1,2.6,1.3,2.5,3
    C130.8,185,129.8,185.8,128,185.9z"></path><path class="st19" d="M156,183.2c-0.2,1.7-1.2,2.8-2.9,2.7c-1.8-0.1-2.6-1.3-2.5-3c0.1-1.8,1.1-2.9,2.8-2.7
    C155,180.3,155.9,181.4,156,183.2z"></path><path class="st13" d="M168.7,182.9c-0.4,1.8-1.2,3-3,3c-1.7,0-2.8-1.2-2.8-2.8c0-1.8,1.1-3.1,3.1-3
    C167.6,180.2,168.3,181.6,168.7,182.9z"></path><path class="st19" d="M178,185.9c-1.7-0.4-2.6-1.4-2.5-3.1c0.1-1.7,1.2-2.8,2.9-2.7c1.7,0.1,2.6,1.3,2.5,3.1
    C180.8,185,179.8,185.9,178,185.9z"></path><path class="st1" d="M93.5,35.5c-0.2,1.7-1.1,2.8-2.8,2.9c-1.7,0.1-2.9-0.9-3-2.6c-0.1-1.8,0.9-2.8,2.7-2.9
    C92.3,32.8,93.2,33.9,93.5,35.5z"></path><path class="st18" d="M206.1,183.1c-0.2,1.7-1.1,2.9-2.8,2.8c-1.8,0-2.7-1.2-2.7-2.9c0-1.8,1-2.9,2.7-2.8
    C205,180.2,205.9,181.3,206.1,183.1z"></path><path class="st12" d="M30.8,118c-0.5,1.7-1.6,2.5-3.3,2.2c-1.6-0.3-2.7-1.4-2.3-3.1c0.3-1.7,1.6-2.5,3.3-2.2
    C30.1,115.1,30.9,116.3,30.8,118z"></path><path class="st17" d="M228.4,185.9c-1.7-0.2-2.8-1-2.9-2.8c-0.1-1.8,1-2.9,2.6-3c1.7-0.1,2.7,1,2.8,2.8
    C231.1,184.6,230.2,185.7,228.4,185.9z"></path><path class="st13" d="M143.6,166.6c-0.3,1.7-1.3,2.7-3,2.7c-1.7,0-2.9-1-2.8-2.7c0.1-1.7,1.1-2.7,2.9-2.7
    C142.5,163.9,143.4,165,143.6,166.6z"></path><path class="st18" d="M2.9,196.6c1.6,0.1,2.8,0.9,2.8,2.7c0.1,1.7-1,2.8-2.7,2.9c-1.8,0.1-2.9-1-3-2.6C0,197.8,1,196.8,2.9,196.6z"></path><path class="st13" d="M30.8,199.6c-0.3,1.7-1.3,2.7-3.1,2.5c-1.7-0.2-2.7-1.3-2.6-3c0.1-1.7,1.3-2.7,3.1-2.5
    C29.9,196.8,30.8,197.9,30.8,199.6z"></path><path class="st17" d="M90.7,196.6c1.8,0.2,2.9,1.3,2.8,3c-0.1,1.7-1.3,2.7-3,2.6c-1.7-0.1-2.8-1.2-2.7-2.9
    C87.9,197.4,89.1,196.7,90.7,196.6z"></path><path class="st13" d="M118.5,199.2c-0.2,1.6-0.9,2.8-2.7,2.9c-1.8,0.1-2.8-0.9-3-2.6c-0.1-1.7,0.9-2.8,2.6-3
    C117.2,196.5,118.1,197.6,118.5,199.2z"></path><path class="st19" d="M140.8,196.6c1.7,0.3,2.9,1.2,2.8,3c-0.1,1.7-1.3,2.7-3,2.6c-1.7-0.1-2.8-1.2-2.7-2.9
    C137.9,197.5,139.1,196.7,140.8,196.6z"></path><path class="st13" d="M168.6,199c-0.2,1.9-1,3-2.7,3.2c-1.8,0.1-2.9-0.9-3-2.6c-0.2-1.7,0.9-2.8,2.6-3
    C167.3,196.4,168.1,197.7,168.6,199z"></path><path class="st19" d="M193.7,199.3c-0.2,1.7-1.1,2.8-2.9,2.8c-1.8,0-2.9-1-2.9-2.7c-0.1-1.7,1.1-2.8,2.8-2.8
    C192.5,196.6,193.4,197.6,193.7,199.3z"></path><path class="st13" d="M216.1,196.6c1.6,0.4,2.7,1.3,2.5,3.1c-0.2,1.7-1.3,2.7-3,2.5c-1.8-0.2-2.7-1.3-2.6-3
    C213.1,197.5,214.3,196.6,216.1,196.6z"></path><path class="st12" d="M118.5,35.6c-0.3,1.6-1.1,2.8-2.9,2.8c-1.7,0-2.8-1.1-2.8-2.8c0-1.7,1-2.8,2.8-2.8
    C117.5,32.8,118.2,34.1,118.5,35.6z"></path><path class="st15" d="M18.2,215.8c-0.3,1.8-1.2,3-2.9,2.9c-1.7-0.1-2.7-1.3-2.6-3.1c0.1-1.7,1.1-2.8,2.9-2.7
    C17.4,213,18.1,214.3,18.2,215.8z"></path><path class="st15" d="M181,100.9c0,1.7-0.7,2.9-2.5,3c-1.7,0.1-2.8-0.9-3-2.6c-0.2-1.8,0.9-2.9,2.5-3
    C179.7,98.2,180.8,99.1,181,100.9z"></path><path class="st16" d="M143.6,35.4c-0.2,1.8-1.1,2.9-2.9,3c-1.7,0-2.9-1-2.9-2.7c0-1.7,1-2.8,2.8-2.8
    C142.4,32.8,143.2,34,143.6,35.4z"></path><path class="st12" d="M206.1,101.3c-0.3,1.7-1.2,2.8-3,2.7c-1.7-0.1-2.6-1.3-2.5-3c0.1-1.8,1.2-2.7,2.9-2.6
    C205.1,98.4,206,99.5,206.1,101.3z"></path><path class="st10" d="M165.5,32.8c2,0.2,3.1,1.2,3,2.9c0,1.7-1.1,2.8-2.9,2.7c-1.7,0-2.8-1.2-2.8-2.8
    C162.9,33.9,164.1,33,165.5,32.8z"></path><path class="st16" d="M193.7,35.5c-0.1,1.8-1.1,2.8-2.8,2.9c-1.7,0.1-2.9-0.9-3-2.7c-0.1-1.7,1-2.8,2.8-2.9
    C192.4,32.8,193.4,33.8,193.7,35.5z"></path><path class="st17" d="M103.2,218.7c-1.8-0.2-2.8-1.2-2.8-2.9c0-1.7,0.9-2.9,2.7-2.9c1.8,0,2.8,1,2.8,2.8
    C105.9,217.5,104.8,218.3,103.2,218.7z"></path><path class="st18" d="M203,196.5c2.2,0.2,3.1,1.3,3,3c-0.1,1.7-1.1,2.7-2.9,2.6c-1.8-0.1-2.6-1.2-2.6-2.9
    C200.6,197.4,201.8,196.7,203,196.5z"></path><path class="st18" d="M152.9,212.9c1.8,0,2.9,0.9,3,2.6c0.1,1.7-0.8,2.9-2.5,3.1c-1.7,0.2-2.8-0.8-2.9-2.6
    C150.4,214.3,151.2,213.2,152.9,212.9z"></path><path class="st15" d="M115.8,114.8c1.7,0.3,2.8,1.2,2.7,2.9c-0.1,1.7-1.3,2.7-3,2.5c-1.7-0.1-2.8-1.2-2.6-2.9
    C112.9,115.6,114.1,114.8,115.8,114.8z"></path><path class="st18" d="M178.5,212.9c1.7,0.3,2.5,1.4,2.4,3.1c-0.1,1.8-1.2,2.8-2.9,2.6c-1.7-0.2-2.7-1.4-2.5-3.1
    C175.7,213.8,176.7,212.9,178.5,212.9z"></path><path class="st16" d="M130.8,132.8c0.1,3-1.1,3.9-2.7,3.9c-1.6,0-2.8-1-2.8-2.8c0-1.7,1-2.8,2.8-2.8
    C129.9,131,130.8,132.1,130.8,132.8z"></path><path class="st13" d="M203.4,212.9c1.7,0.2,2.7,1.2,2.7,2.9c0,1.7-1.1,2.9-2.8,2.8c-1.7,0-2.7-1.2-2.7-2.9
    C200.6,214,201.6,213,203.4,212.9z"></path><path class="st1" d="M203.1,32.8c1.8,0,2.9,0.9,3,2.6c0.1,1.7-0.7,2.9-2.5,3c-1.7,0.1-2.8-0.8-2.9-2.6
    C200.5,34.1,201.3,33.1,203.1,32.8z"></path><path class="st12" d="M216.2,32.8c1.6,0.3,2.6,1.3,2.5,3c-0.1,1.7-1.3,2.7-3,2.6c-1.7-0.1-2.7-1.3-2.6-3
    C213.1,33.8,214.2,32.8,216.2,32.8z"></path><path class="st12" d="M105.9,166.2c0,2.2-1,3.1-2.7,3.2c-1.8,0.1-2.8-0.9-2.8-2.7c0-1.7,0.9-2.8,2.7-2.8
    C104.8,163.8,105.7,164.9,105.9,166.2z"></path><path class="st15" d="M15.5,54.9c-1.7-0.2-2.7-1.2-2.8-2.9c0-1.7,0.9-2.9,2.6-2.9c1.8-0.1,2.7,1.1,2.8,2.8
    C18.2,53.6,17.2,54.7,15.5,54.9z"></path><path class="st12" d="M103.4,54.9c-1.9-0.1-2.9-1.1-3-2.8c-0.1-1.7,0.8-2.9,2.5-3c1.7-0.1,2.8,1,2.9,2.7
    C106,53.6,104.9,54.5,103.4,54.9z"></path><path class="st16" d="M130.9,51.3c0.1,2.3-0.8,3.4-2.5,3.6c-1.8,0.1-2.8-1-2.9-2.7c-0.1-1.7,0.8-2.9,2.5-3
    C129.7,49,130.7,50.1,130.9,51.3z"></path><path class="st16" d="M153.3,131c1.6,0.3,2.7,1.2,2.6,3c-0.1,1.8-1.3,2.7-2.9,2.7c-1.7,0-2.7-1.1-2.6-2.9
    C150.6,132,151.6,131.1,153.3,131z"></path><path class="st18" d="M105.9,232.2c-0.1,1.6-0.9,2.7-2.7,2.8c-1.8,0.1-2.8-1-2.9-2.7c-0.1-1.8,0.9-2.9,2.6-2.9
    C104.6,229.3,105.8,230.2,105.9,232.2z"></path><path class="st10" d="M181,19.2c-0.1,1.8-1,2.9-2.8,2.8c-1.7-0.1-2.7-1.1-2.7-2.9c0-1.8,1.2-2.8,2.8-2.8
    C180,16.4,181,17.5,181,19.2z"></path><path class="st16" d="M180.9,133.4c0.1,2.1-0.8,3.2-2.5,3.3c-1.6,0.1-2.8-0.8-2.9-2.6c-0.1-1.8,0.9-2.9,2.6-3
    C179.8,130.9,180.8,132,180.9,133.4z"></path><path class="st16" d="M153.3,49.1c1.7,0.3,2.7,1.3,2.6,3c-0.1,1.8-1.2,2.8-2.9,2.8c-1.7-0.1-2.6-1.3-2.6-3
    C150.6,50.1,151.6,49.2,153.3,49.1z"></path><path class="st13" d="M231.1,232.4c-0.2,1.5-1,2.6-2.8,2.6c-1.8,0-2.7-1.1-2.8-2.8c0-1.8,1.1-2.8,2.8-2.8
    C230,229.3,231,230.3,231.1,232.4z"></path><path class="st13" d="M68.4,166.6c-0.2,1.7-1,2.8-2.8,2.8c-1.7,0-2.8-0.9-2.8-2.7c0-1.7,1-2.7,2.7-2.8
    C67.3,163.8,68.1,165,68.4,166.6z"></path><path class="st16" d="M93.5,166.7c-0.3,1.8-1.4,2.7-3.1,2.6c-1.7-0.1-2.8-1.1-2.7-2.9c0.1-1.7,1.2-2.7,3-2.6
    C92.5,164,93.3,165.1,93.5,166.7z"></path><path class="st17" d="M118.5,166.5c-0.2,1.7-1,2.8-2.8,2.8c-1.7,0.1-2.9-0.9-2.9-2.6c-0.1-1.7,0.9-2.8,2.7-2.9
    C117.3,163.8,118.1,164.9,118.5,166.5z"></path><path class="st17" d="M218.7,166.6c-0.2,1.7-1.1,2.8-2.8,2.8c-1.7,0-2.9-1.1-2.8-2.7c0-1.6,1-2.8,2.8-2.8
    C217.6,163.9,218.4,165,218.7,166.6z"></path><path class="st12" d="M180.9,1.9c0,2.7-1,3.8-2.6,3.7c-1.6,0-2.8-0.9-2.8-2.8c0-1.7,1-2.8,2.7-2.8C180,0,180.9,1.1,180.9,1.9z"></path><path class="st10" d="M206.1,2.6c0,1.8-0.8,3-2.6,3c-1.7,0.1-2.8-0.8-2.9-2.6c-0.1-1.7,0.7-2.9,2.5-3C204.9,0,205.7,1.1,206.1,2.6z
    "></path><path class="st10" d="M228.3,5.7c-1.6-0.3-2.8-1.1-2.7-2.9c0.1-1.7,1.1-2.7,2.8-2.7c1.8,0,2.6,1.2,2.6,2.9
    C231,4.7,230,5.6,228.3,5.7z"></path><path class="st15" d="M102.7,16.3c1.8,0.2,3,1,3.1,2.7c0.1,1.8-0.8,2.9-2.5,3c-1.8,0.2-2.8-0.9-2.9-2.6
    C100.2,17.7,101.3,16.8,102.7,16.3z"></path><path class="st15" d="M228.3,16.3c1.9,0.4,2.8,1.5,2.7,3.2c-0.1,1.7-1.1,2.8-2.9,2.6c-1.7-0.2-2.6-1.3-2.5-3
    C225.7,17.2,227,16.6,228.3,16.3z"></path><path class="st12" d="M15.4,32.8c1.9,0.1,2.8,1.1,2.8,2.8c0,1.7-1,2.8-2.7,2.8c-1.7,0-2.7-1.1-2.7-2.8
    C12.7,33.8,13.7,32.9,15.4,32.8z"></path><path class="st15" d="M55.8,35.2c0,2-1,3-2.7,3.2c-1.7,0.1-2.9-0.9-2.9-2.6c-0.1-1.6,0.8-2.9,2.6-2.9
    C54.6,32.8,55.5,33.8,55.8,35.2z"></path><path class="st16" d="M130.9,35.6c-0.1,1.8-1,2.7-2.8,2.7c-1.8,0-2.8-1.1-2.8-2.8c0-1.6,1-2.8,2.8-2.7
    C130,32.9,130.8,33.9,130.9,35.6z"></path><path class="st16" d="M155.9,35.6c0,1.8-1.1,2.8-2.7,2.8c-1.7,0-2.7-1-2.7-2.8c0-1.8,0.9-2.8,2.7-2.8
    C154.9,32.9,155.9,33.8,155.9,35.6z"></path><path class="st13" d="M102.9,131c1.7,0.1,2.8,0.9,3,2.7c0.2,1.8-1,2.8-2.6,3c-1.7,0.2-2.8-0.9-2.9-2.6
    C100.3,132.3,101.2,131.3,102.9,131z"></path><path class="st16" d="M180.9,34.7c-0.1,2.9-1.2,3.8-2.9,3.7c-1.7-0.1-2.7-1.2-2.6-3c0.1-1.8,1.2-2.7,2.9-2.6
    C180.3,32.9,180.9,34.1,180.9,34.7z"></path><path class="st15" d="M130.9,69.1c0,0.9-0.9,2-2.7,2c-1.8,0-2.8-1.1-2.8-2.7c-0.1-1.7,1-2.8,2.7-2.8
    C129.8,65.6,130.9,66.5,130.9,69.1z"></path><path class="st15" d="M28.2,65.6c1.7,0.2,2.7,1.2,2.6,2.9c-0.1,1.7-1.2,2.7-3,2.6c-1.7-0.1-2.7-1.3-2.7-2.9
    C25.2,66.5,26.4,65.7,28.2,65.6z"></path><path class="st1" d="M40.1,71.1c-1.5-0.2-2.5-1.2-2.4-2.9c0-1.8,1.2-2.6,2.9-2.6c1.8,0,2.8,1.2,2.7,2.8
    C43.2,70.1,42.2,71.2,40.1,71.1z"></path><path class="st15" d="M93.5,68.3c-0.3,1.6-1.1,2.8-2.9,2.8c-1.8,0-2.8-1-2.9-2.7c-0.1-1.8,1.1-2.7,2.8-2.8
    C92.3,65.6,93.2,66.7,93.5,68.3z"></path><path class="st15" d="M118.5,68.3c-0.3,1.6-1,2.8-2.8,2.8c-1.8,0-2.8-1.1-2.9-2.7c-0.1-1.7,1-2.7,2.7-2.8
    C117.3,65.6,118.2,66.7,118.5,68.3z"></path><path class="st19" d="M228.2,212.9c2,0.2,2.9,1.2,2.9,2.9c0,1.7-1,2.9-2.7,2.9c-1.6,0-2.8-1.1-2.8-2.9
    C225.6,214,226.7,213.1,228.2,212.9z"></path><path class="st15" d="M218.7,68.6c-0.4,1.6-1.3,2.7-3.1,2.5c-1.7-0.2-2.7-1.3-2.6-3c0.1-1.7,1.3-2.6,3-2.5
    C217.8,65.8,218.6,66.9,218.7,68.6z"></path><path class="st18" d="M15.6,235c-1.7-0.1-2.8-1-2.9-2.7c-0.1-1.7,0.9-2.9,2.6-2.9c1.7-0.1,2.8,0.9,2.8,2.7
    C18.2,233.7,17.3,234.7,15.6,235z"></path><path class="st12" d="M18.2,84.6c0,1.7-0.9,2.9-2.6,3c-1.6,0.1-2.8-0.9-2.9-2.6c-0.1-1.7,0.8-2.8,2.5-2.9
    C17,81.9,17.9,82.9,18.2,84.6z"></path><path class="st19" d="M153.4,202.2c-1.8,0-2.8-0.8-2.9-2.6c-0.1-1.7,0.7-2.9,2.5-3c1.7-0.1,2.8,0.8,2.9,2.6
    C156,201,155.1,201.9,153.4,202.2z"></path><path class="st19" d="M180.9,199.4c0,1.8-0.9,2.8-2.7,2.8c-1.7,0-2.7-1-2.7-2.8c0-1.8,1.1-2.8,2.7-2.8
    C179.9,196.6,181,197.5,180.9,199.4z"></path><path class="st16" d="M105.9,101.5c-0.3,1.5-1.2,2.5-3,2.4c-1.7-0.1-2.6-1.3-2.5-3c0.1-1.7,1.2-2.8,2.9-2.6
    C104.9,98.5,106,99.5,105.9,101.5z"></path><path class="st16" d="M231.1,101.3c-0.2,1.6-1.1,2.8-2.8,2.7c-1.6-0.1-2.7-1.1-2.7-2.9c0-1.8,1.3-2.7,2.8-2.7
    C230.1,98.3,231,99.4,231.1,101.3z"></path><path class="st13" d="M231.1,133.6c0,1.8-0.9,3-2.6,3.1c-1.6,0.1-2.8-0.8-2.9-2.6c-0.1-1.8,0.9-2.8,2.6-3
    C229.9,130.9,230.8,132,231.1,133.6z"></path><path class="st18" d="M53.5,202.2c-2.1,0-3.2-1-3.3-2.7c-0.1-1.7,0.9-2.8,2.7-2.9c1.7-0.1,2.8,0.9,2.9,2.6
    C55.9,201,54.8,201.9,53.5,202.2z"></path><path class="st19" d="M125.4,232.3c0.1-1.9,1.1-2.9,2.7-2.9c1.6,0,2.8,0.9,2.8,2.8c0,1.8-1,2.8-2.7,2.8
    C126.5,235,125.6,233.9,125.4,232.3z"></path><path class="st19" d="M153.4,235c-1.8,0-2.8-0.9-2.9-2.7c-0.1-1.7,0.8-2.9,2.5-3c1.6-0.1,2.9,0.8,2.9,2.6
    C156,233.7,155.1,234.7,153.4,235z"></path><path class="st10" d="M15.7,0c1.7,0.3,2.5,1.4,2.4,3C18,4.8,17,5.8,15.2,5.7c-1.7-0.2-2.7-1.3-2.5-3C12.9,1,13.9,0,15.7,0z"></path><path class="st19" d="M178.1,229.3c1.7,0.1,2.8,0.8,2.8,2.7c0,1.7-0.8,2.9-2.6,3c-1.7,0.1-2.8-0.9-2.9-2.7
    C175.4,230.5,176.4,229.6,178.1,229.3z"></path><path class="st18" d="M206.1,232c-0.1,1.5-0.8,2.7-2.5,2.9c-1.8,0.2-2.8-0.9-2.9-2.6c-0.2-1.7,0.7-2.9,2.5-3
    C204.7,229.2,205.8,230.1,206.1,232z"></path><path class="st17" d="M30.8,166.6c-0.4,2-1.4,2.9-3.1,2.7c-1.7-0.2-2.8-1.2-2.6-2.9c0.2-1.6,1.3-2.7,3.1-2.5
    C30,164,30.6,165.3,30.8,166.6z"></path><path class="st13" d="M128.6,202.2c-2,0.1-3.1-0.9-3.2-2.6c-0.1-1.7,0.8-2.8,2.6-2.9c1.8-0.1,2.8,0.8,2.9,2.6
    C131,201,130.1,202,128.6,202.2z"></path><path class="st15" d="M105.9,35.3c-0.1,2-1,3-2.7,3.1c-1.8,0.1-2.8-0.9-2.8-2.7c0-1.7,0.8-2.8,2.6-2.9
    C104.8,32.8,105.6,33.9,105.9,35.3z"></path><path class="st17" d="M231.1,117.5c-0.2,1.8-1.1,2.8-2.9,2.7c-1.8-0.1-2.7-1.2-2.6-3c0.1-1.6,1.1-2.4,2.7-2.4
    C230.1,114.7,231,115.8,231.1,117.5z"></path><path class="st18" d="M203.2,147.4c1.6,0.2,2.8,0.9,2.9,2.7c0.1,1.7-0.8,2.8-2.6,2.9c-1.7,0.1-2.7-0.9-2.8-2.6
    C200.5,148.6,201.5,147.7,203.2,147.4z"></path><path class="st13" d="M153.3,87.6c-1.6-0.2-2.8-0.9-2.8-2.7c0-1.7,0.8-2.8,2.6-2.9c1.7,0,2.8,0.9,2.9,2.6
    C156,86.4,154.9,87.3,153.3,87.6z"></path><path class="st13" d="M125.4,84.8c0.1-1.7,1-2.8,2.8-2.8c1.7,0,2.7,1,2.7,2.7c0,1.9-1.1,2.8-2.7,2.8
    C126.6,87.6,125.5,86.5,125.4,84.8z"></path><path class="st16" d="M68.4,68.5c-0.4,1.6-1.1,2.7-2.9,2.7c-1.8-0.1-2.7-1.2-2.6-2.9c0-1.8,1.2-2.6,2.9-2.6
    C67.5,65.7,68.2,66.9,68.4,68.5z"></path><path class="st17" d="M18.3,117.5c-0.3,2-1.4,2.9-3.1,2.7c-1.7-0.2-2.6-1.4-2.4-3.2c0.2-1.5,1.3-2.3,2.8-2.2
    C17.4,114.9,18.1,116.1,18.3,117.5z"></path><path class="st16" d="M203.1,71.2c-1.7-0.2-2.6-1.2-2.5-2.9c0-1.8,1.2-2.6,2.8-2.6c1.7,0.1,2.7,1.1,2.6,2.9
    C205.9,70.2,204.9,71.1,203.1,71.2z"></path><path class="st17" d="M103.2,114.8c1.6,0.2,2.7,1.1,2.6,2.9c-0.1,1.8-1.3,2.6-3,2.6c-1.6-0.1-2.5-1.1-2.5-2.6
    C100.3,115.9,101.3,114.8,103.2,114.8z"></path><path class="st17" d="M43.4,117.5c-0.4,1.9-1.4,2.8-3.1,2.7c-1.7-0.1-2.7-1.1-2.6-2.9c0.1-1.8,1.3-2.6,3-2.5
    C42.5,114.9,43.2,116.1,43.4,117.5z"></path><path class="st13" d="M180.9,68.3c0,1.7-0.8,2.8-2.6,2.9c-1.7,0-2.8-0.9-2.8-2.7c-0.1-1.8,1-2.8,2.6-2.8
    C179.8,65.6,181,66.4,180.9,68.3z"></path><path class="st16" d="M203.3,87.6c-1.6-0.3-2.7-1.1-2.7-2.9c0-1.8,1-2.8,2.7-2.8c1.7,0,2.7,1,2.8,2.7
    C206.1,86.5,204.9,87.3,203.3,87.6z"></path><path class="st17" d="M155.9,68.3c-0.1,1.6-0.9,2.7-2.7,2.8c-1.7,0.1-2.7-0.9-2.8-2.7c-0.1-1.8,0.9-2.8,2.6-2.8
    C154.7,65.6,155.9,66.5,155.9,68.3z"></path><path class="st18" d="M105.9,150.3c0,1.7-1,2.6-2.7,2.7c-1.8,0.1-2.7-1-2.8-2.7c-0.1-1.8,1-2.8,2.7-2.8
    C104.6,147.5,105.8,148.4,105.9,150.3z"></path><path class="st15" d="M43.4,35.5c-0.2,1.7-0.9,2.8-2.7,2.9c-1.7,0.1-2.9-0.8-2.9-2.6c-0.1-1.7,0.9-2.8,2.7-2.9
    C42.2,32.8,43,33.8,43.4,35.5z"></path><path class="st19" d="M180.9,150.4c-0.2,1.7-1.1,2.7-2.9,2.6c-1.7-0.1-2.7-1.2-2.6-2.9c0.1-1.8,1.3-2.7,2.9-2.6
    C180.1,147.5,181.1,148.6,180.9,150.4z"></path><path class="st17" d="M203.4,114.8c1.8,0.2,2.8,1.3,2.6,3c-0.2,1.8-1.4,2.6-3.1,2.4c-1.5-0.2-2.4-1.2-2.3-2.7
    C200.6,115.7,201.7,114.8,203.4,114.8z"></path><path class="st19" d="M128.2,153c-1.9-0.2-2.8-1.2-2.8-2.9c0.1-1.8,1.2-2.7,2.9-2.6c1.6,0.1,2.6,1.1,2.6,2.9
    C130.8,152.2,129.7,152.9,128.2,153z"></path><path class="st19" d="M128.3,169.3c-1.7,0-2.9-0.8-2.9-2.6c0-1.7,0.8-2.8,2.6-2.9c1.8-0.1,2.7,0.8,2.9,2.6
    C131,168.3,130.1,169.2,128.3,169.3z"></path><path class="st17" d="M178.1,82c1.7,0,2.8,0.8,2.9,2.6c0.1,1.8-0.8,2.9-2.5,3c-1.6,0.1-2.8-0.8-2.9-2.6
    C175.4,83.2,176.4,82.2,178.1,82z"></path><path class="st19" d="M156,166.5c-0.1,2.2-1.3,2.9-2.9,2.9c-1.8,0-2.6-1.1-2.5-2.9c0.1-1.7,1.1-2.7,2.9-2.6
    C155.1,164,155.9,165.1,156,166.5z"></path><path class="st18" d="M78.3,32.9c1.6,0.2,2.6,1.1,2.5,2.9c-0.1,1.8-1.1,2.7-2.9,2.6c-1.8,0-2.8-1.2-2.7-2.8
    C75.3,33.9,76.4,32.8,78.3,32.9z"></path><path class="st20" d="M178.1,169.4c-1.3-0.1-2.5-0.7-2.6-2.5c-0.1-1.7,0.8-2.8,2.5-2.9c1.7-0.1,2.8,0.8,2.9,2.6
    C181,168.2,180.3,169.3,178.1,169.4z"></path><path class="st18" d="M78.2,114.8c1.6,0.1,2.6,0.9,2.7,2.7c0,1.8-1,2.7-2.7,2.7c-1.8,0-2.9-1.1-2.9-2.7
    C75.2,115.9,76.3,114.9,78.2,114.8z"></path><path class="st18" d="M43.4,199.4c-0.3,1.6-1.1,2.8-2.9,2.8c-1.8,0-2.8-1-2.8-2.8c0-1.8,1.1-2.7,2.8-2.7
    C42.3,196.6,43.1,197.8,43.4,199.4z"></path><path class="st17" d="M68.4,35.7c-0.3,1.6-1.1,2.8-2.9,2.7c-1.7-0.1-2.7-1.1-2.7-2.8c0.1-1.7,1-2.7,2.8-2.7
    C67.5,32.9,68.1,34.1,68.4,35.7z"></path><path class="st20" d="M65.2,196.6c2.3,0.2,3.2,1.3,3.1,3c-0.1,1.6-1.1,2.7-2.9,2.6c-1.8-0.1-2.7-1.2-2.6-2.9
    C62.9,197.5,64.1,196.8,65.2,196.6z"></path><path class="st21" d="M75.2,199.3c0.3-1.7,1.3-2.8,3-2.7c1.7,0.1,2.7,1.1,2.6,2.9c-0.1,1.8-1.1,2.7-2.9,2.6
    C76.1,202.1,75.4,200.9,75.2,199.3z"></path><path class="st17" d="M105.9,199.5c-0.2,1.7-1.2,2.6-2.9,2.6c-1.9,0-2.6-1.2-2.6-2.9c0-1.8,1.1-2.7,2.9-2.6
    C105,196.7,105.9,197.8,105.9,199.5z"></path><path class="st15" d="M128.2,114.8c1.7,0.1,2.7,1,2.7,2.7c0,1.7-1,2.7-2.7,2.7c-1.8,0-2.8-1.1-2.8-2.7
    C125.4,115.9,126.4,114.8,128.2,114.8z"></path><path class="st18" d="M18.2,150.1c-0.1,1.7-0.8,2.9-2.6,2.9c-1.7,0-2.8-0.9-2.8-2.6c-0.1-1.8,1-2.8,2.6-2.9
    C17,147.3,18,148.5,18.2,150.1z"></path><path class="st20" d="M156,150.3c-0.2,1.7-1.1,2.7-2.9,2.7c-1.8,0-2.6-1.1-2.6-2.8c0-1.8,1.2-2.8,2.8-2.7
    C154.9,147.5,156,148.5,156,150.3z"></path><path class="st17" d="M65.2,114.8c1.9,0,3,0.9,3.1,2.6c0.1,1.6-0.9,2.8-2.6,2.9c-1.7,0.1-2.8-0.8-2.9-2.5
    C62.7,115.9,63.7,115,65.2,114.8z"></path><path class="st20" d="M153.1,120.2c-1.9-0.2-2.7-1.2-2.6-3c0.1-1.6,1.1-2.4,2.6-2.4c1.7,0,2.9,1,2.9,2.7
    C155.9,119.3,154.8,120.1,153.1,120.2z"></path><path class="st19" d="M228.5,38.4c-1.7-0.1-2.9-0.8-2.9-2.7c-0.1-1.8,1-2.8,2.8-2.9c1.6-0.1,2.5,0.8,2.6,2.4
    C231.2,37,230.4,38.1,228.5,38.4z"></path><path class="st20" d="M18.2,199.5c-0.3,1.7-1.1,2.8-3,2.6c-1.8-0.2-2.6-1.4-2.5-3.1c0.1-1.6,1.2-2.4,2.7-2.4
    C17.2,196.6,18.1,197.8,18.2,199.5z"></path><path class="st18" d="M203.5,163.9c1.7,0.2,2.6,1.3,2.5,3c-0.1,1.8-1.3,2.6-3.1,2.4c-1.6-0.2-2.4-1.2-2.3-2.7
    C200.7,164.9,201.6,163.9,203.5,163.9z"></path><path class="st20" d="M181,117.6c-0.2,1.8-1.2,2.7-2.9,2.5c-1.5-0.1-2.5-1-2.5-2.6c-0.1-1.8,1.1-2.8,2.8-2.8
    C180,114.8,181,115.8,181,117.6z"></path><path class="st22" d="M231.1,199.5c-0.2,1.7-1.1,2.8-3,2.6c-1.8-0.2-2.6-1.3-2.5-3.1c0.1-1.6,1.3-2.4,2.7-2.4
    C230.1,196.6,231,197.7,231.1,199.5z"></path></g></svg>