<svg width="35" height="51" viewBox="0 0 35 51" fill="none" xmlns="http://www.w3.org/2000/svg">
<path fill-rule="evenodd" clip-rule="evenodd" d="M6.59632 32.5893C5.93578 34.0853 5.3648 35.6122 4.85513 37.1534C4.86159 37.1614 4.86766 37.1679 4.87431 37.1748C4.35669 38.8191 3.87434 40.4929 3.518 42.1419C3.24145 43.4101 3.00092 44.686 2.79136 45.9421C2.77757 45.8093 2.76488 45.6764 2.75342 45.5434C2.71187 45.0598 2.59365 44.5594 2.47743 44.0675C2.45141 43.9574 2.42548 43.8477 2.40054 43.7387C1.89823 41.5876 1.543 39.4083 1.33705 37.2142C1.30119 36.7349 1.23518 36.2581 1.13939 35.7862C0.988334 35.0717 0.632421 34.7876 0.342747 35.1104C0.145353 35.3324 0.000575441 35.6841 0.00164804 36.2094C-0.00673041 36.7628 0.016842 37.3162 0.0722608 37.8671C0.281084 39.685 0.539486 41.4888 0.809209 43.2878C1.07966 45.0868 1.36198 46.8803 1.64511 48.6722L1.8979 50.3358C1.91814 50.4639 1.97177 50.5853 2.05396 50.689C2.13615 50.7927 2.24433 50.8756 2.36879 50.93C2.56656 51.0153 2.79211 51.0229 2.99581 50.9512C3.19952 50.8794 3.3647 50.7342 3.45502 50.5475L3.45888 50.5395C3.66272 50.1179 3.85454 49.6907 4.04577 49.2647C4.10081 49.1421 4.15581 49.0196 4.21102 48.8974L4.95268 47.2604C5.45226 46.1755 5.96659 45.1063 6.55964 44.089C6.70104 43.8565 6.84989 43.6271 7.00169 43.3997C7.11583 43.2409 7.23288 43.0841 7.34968 42.9277C7.39617 42.8655 7.44261 42.8033 7.48882 42.7411C8.12294 41.9343 8.82231 41.1751 9.58065 40.4703L9.56579 40.4509L9.85992 40.1603L10.0081 40.0156L10.1623 39.8755C10.3675 39.6884 10.5684 39.4989 10.755 39.2999C10.991 39.0647 11.2247 38.8247 11.4497 38.5791C11.5034 38.5212 11.5574 38.4636 11.6112 38.4061C11.7846 38.221 11.9571 38.0369 12.1188 37.8475C12.26 37.6627 12.2749 37.4965 12.2135 37.4052C12.1502 37.3118 12.0026 37.2852 11.7972 37.3558C11.3377 37.5159 10.9008 37.7287 10.4962 37.9895C10.2863 38.123 10.0787 38.2665 9.87336 38.42C9.6734 38.5795 9.47525 38.7481 9.27882 38.9236C8.29124 39.8131 7.38775 40.7823 6.57863 41.8202C5.781 42.8654 5.07026 43.9673 4.45279 45.116C4.0968 45.7665 3.76958 46.4266 3.44742 47.0855C3.91343 45.5774 4.34745 43.9649 4.79879 42.2879C4.9807 41.612 5.16543 40.9256 5.35621 40.2315C5.61566 39.3057 5.88192 38.3819 6.18176 37.4691C6.27707 37.1626 6.38155 36.8591 6.48602 36.5557C6.53792 36.405 6.58982 36.2543 6.64059 36.1032C6.69653 35.9524 6.75112 35.8011 6.80571 35.6498C6.91411 35.3493 7.02249 35.0489 7.14145 34.7524L7.40375 34.0816L7.68037 33.4165C7.86271 32.9723 8.06019 32.5348 8.26173 32.0989C8.66818 31.2276 9.10623 30.3722 9.57587 29.5327C10.3608 28.1192 11.257 26.7638 12.2567 25.478C12.4136 25.5531 12.5756 25.6185 12.7417 25.6736C12.945 25.7412 13.1525 25.7967 13.3631 25.8399C14.9148 26.1336 16.5137 26.1242 18.0614 25.8125C19.3051 25.5655 20.5046 25.1503 21.6227 24.5798C22.7367 24.0118 23.7645 23.3047 24.6785 22.4776C25.1412 22.0594 25.5665 21.6058 25.95 21.1214C26.1598 20.8615 26.3435 20.5838 26.4986 20.2917C26.6632 19.9768 26.7797 19.6415 26.8446 19.2957C26.9168 18.9219 26.9084 18.5381 26.8197 18.1674C26.7229 17.7657 26.5136 17.396 26.2137 17.0969C25.9222 16.8115 25.5631 16.5958 25.1658 16.4675C24.8116 16.3516 24.4409 16.2865 24.0662 16.2744C23.3845 16.2561 22.7044 16.3442 22.0531 16.5353C21.4419 16.7127 20.8479 16.939 20.2774 17.2117C19.1685 17.7308 18.1103 18.3414 17.1153 19.0366C15.2231 20.3686 13.5268 21.9316 12.0707 23.6846C11.9843 23.5897 11.9067 23.4876 11.8388 23.3794C11.5428 22.8979 11.4446 22.282 11.4956 21.6447C11.58 20.7899 11.7959 19.9513 12.1363 19.1552C12.2049 18.9838 12.285 18.8081 12.3658 18.6309C12.3823 18.5949 12.3987 18.5587 12.4152 18.5226C12.4493 18.4491 12.4824 18.3751 12.5155 18.3012C12.578 18.1615 12.6405 18.0218 12.71 17.8854L13.0182 17.2557L13.3438 16.6388C14.9549 13.6711 17.0635 10.9689 19.5881 8.63689C22.1143 6.2868 25.0162 4.32667 28.1875 2.82842C29.5753 2.17243 31.0002 1.58877 32.4556 1.08006C32.6846 1.00205 32.8988 0.925474 33.0988 0.853976C33.1406 0.839027 33.1818 0.824301 33.2224 0.809829C33.4588 0.730575 33.6727 0.656009 33.8639 0.586134L34.3701 0.399657C34.5157 0.344476 34.6371 0.294168 34.7332 0.249274C35.1177 0.0696514 35.0985 -0.022996 34.598 0.00489278C34.426 0.0144817 34.229 0.0319601 34.0041 0.0585771C33.7806 0.0897409 33.5303 0.13351 33.2495 0.187115C32.5581 0.32824 31.8766 0.509493 31.2088 0.729843C30.3729 1.00865 29.5323 1.30864 28.7101 1.65664C28.3719 1.79218 28.0405 1.94251 27.7089 2.0929C27.6337 2.12703 27.5585 2.16115 27.4832 2.19511C27.3461 2.25738 27.2114 2.32387 27.0766 2.39034C27.0115 2.42248 26.9464 2.45462 26.881 2.48627C26.8474 2.50283 26.8139 2.51932 26.7803 2.53581C26.6139 2.61754 26.4475 2.69923 26.2855 2.78778C21.0263 5.53463 16.5765 9.4779 13.3396 14.2599C12.5365 15.457 11.8174 16.7025 11.1871 17.9885C11.1598 18.0448 11.1324 18.1002 11.1049 18.1556C11.0532 18.2602 11.0014 18.3646 10.9511 18.4748C10.8729 18.6422 10.8004 18.8122 10.7302 18.9835C10.5889 19.3285 10.467 19.6802 10.3649 20.0373C10.1371 20.7778 10.0415 21.549 10.082 22.3192C10.1087 22.7332 10.2 23.1411 10.353 23.5299C10.5143 23.9374 10.7556 24.3124 11.0643 24.6353C11.1088 24.6815 11.1545 24.7265 11.2014 24.7704C10.3503 25.8751 9.56698 27.0253 8.85545 28.2154C8.01048 29.6294 7.25608 31.09 6.59632 32.5893ZM13.1554 24.3756C13.1869 24.3864 13.2186 24.3967 13.2505 24.4063C13.4064 24.4544 13.5654 24.493 13.7266 24.5219L14.2556 24.6026C14.3099 24.6081 14.3641 24.6139 14.4184 24.6196C14.5427 24.6328 14.6671 24.646 14.7917 24.6571C14.858 24.6601 14.9242 24.6639 14.9905 24.6677C15.1039 24.6743 15.2175 24.6809 15.3313 24.683C16.0551 24.6975 16.7785 24.6412 17.49 24.515C18.9227 24.2581 20.2928 23.7536 21.5315 23.0269C22.1518 22.6627 22.7394 22.251 23.2884 21.796C23.8329 21.3491 24.3287 20.8518 24.7683 20.3115L24.8852 20.1609L24.9434 20.0854L24.9933 20.0149C25.059 19.9224 25.1192 19.8264 25.1736 19.7275C25.2787 19.5382 25.3571 19.3366 25.4069 19.128C25.4527 18.9402 25.4614 18.7459 25.4326 18.5551C25.42 18.4705 25.3958 18.3878 25.3607 18.309C25.3295 18.2342 25.287 18.1641 25.2344 18.1008C25.183 18.0356 25.1219 17.9777 25.053 17.929C24.9795 17.8749 24.8996 17.829 24.8149 17.7924C24.6187 17.7108 24.41 17.6589 24.1966 17.6385C23.9565 17.6149 23.7145 17.6145 23.4743 17.6374C23.2224 17.6602 22.9726 17.7006 22.727 17.7582C22.2125 17.8837 21.7113 18.0535 21.2297 18.2655C20.9814 18.3717 20.7339 18.4859 20.486 18.6061C20.2406 18.7261 19.9977 18.8505 19.7571 18.9793C18.7945 19.5024 17.8759 20.0948 17.0097 20.7513C15.593 21.8281 14.3011 23.043 13.1554 24.3756Z" fill="#009688"/>
</svg>
