<svg id="Layer_1" data-name="Layer 1" xmlns="http://www.w3.org/2000/svg" viewBox="0 0 512 512"><defs><style>.cls-1{fill:#444f60;}.cls-1,.cls-2{stroke:#616b7a;}.cls-1,.cls-2,.cls-5{stroke-miterlimit:10;stroke-width:5px;}.cls-2,.cls-3,.cls-5{fill:#009688;}.cls-4{fill:#4bb7aa;}.cls-5{stroke:#4bb7aa;}</style></defs><path class="cls-1" d="M430.89,358.13l-15.78-5.88a7.93,7.93,0,0,1-5.14-8.39,153.7,153.7,0,0,0-.24-39.81,7.94,7.94,0,0,1,5-8.43l15.48-6.13a8,8,0,0,0,4.49-10.38l-16.6-41.94a8,8,0,0,0-10.38-4.49l-15.21,6a8,8,0,0,1-9.46-2.82,153.25,153.25,0,0,0-30.47-32.36A8,8,0,0,1,350.3,194l6.79-14.74a8,8,0,0,0-3.92-10.61l-41-18.87a8,8,0,0,0-10.61,3.91l-6.79,14.74a8,8,0,0,1-8.72,4.51,154.09,154.09,0,0,0-58.92-.06,8,8,0,0,1-8.74-4.56l-6.75-15a8,8,0,0,0-10.59-4L160,167.9a8,8,0,0,0-4,10.59l6.89,15.22a8,8,0,0,1-2.3,9.53,153.37,153.37,0,0,0-32.83,35.51,8,8,0,0,1-9.4,3l-15.91-5.94a8,8,0,0,0-10.3,4.71L76.4,282.77a8,8,0,0,0,4.71,10.29l16.31,6.08a7.94,7.94,0,0,1,5.15,8.3,154.45,154.45,0,0,0,.61,39.28,8,8,0,0,1-5,8.5l-16.4,6.49a8,8,0,0,0-4.49,10.39L93.93,414a8,8,0,0,0,10.38,4.49L121,411.92a8,8,0,0,1,9.43,2.78,153.68,153.68,0,0,0,29.77,31.37,8,8,0,0,1,2.28,9.58L154.92,472a8,8,0,0,0,3.91,10.62l41,18.87a8,8,0,0,0,10.62-3.92l7.52-16.32a7.93,7.93,0,0,1,8.73-4.5,154.11,154.11,0,0,0,57.63.3,8,8,0,0,1,8.68,4.57l7.36,16.29a8,8,0,0,0,10.59,4L352,483.3a8,8,0,0,0,4-10.58l-7.23-16a8,8,0,0,1,2.35-9.57A153.61,153.61,0,0,0,384,412.27a8,8,0,0,1,9.34-2.92l16.2,6a8,8,0,0,0,10.29-4.71l15.74-42.26A8,8,0,0,0,430.89,358.13Zm-82.83-1.07a97.31,97.31,0,0,1-141.6,52.27C167,386.17,149,337.32,164,294.09A97.31,97.31,0,0,1,305.5,241.84C345,265,363,313.82,348.06,357.06Z"/><path class="cls-1" d="M303,338.14a48.64,48.64,0,1,1-19.48-52.66A48.69,48.69,0,0,1,303,338.14Z"/><path class="cls-2" d="M277.35,332.83a22.09,22.09,0,1,1-8.85-23.92A22.11,22.11,0,0,1,277.35,332.83Z"/><path class="cls-3" d="M440.15,225H71.85a184.15,184.15,0,0,1,368.3,0Z"/><rect class="cls-4" x="34.24" y="218.92" width="443.51" height="39.63" rx="19.82"/><rect class="cls-4" x="120.72" y="150.88" width="89.45" height="15.15" rx="5.1" transform="translate(323.9 -7) rotate(90)"/><rect class="cls-4" x="301.84" y="150.88" width="89.45" height="15.15" rx="5.1" transform="translate(505.02 -188.12) rotate(90)"/><rect class="cls-4" x="211.28" y="150.88" width="89.45" height="15.15" rx="5.1" transform="translate(414.46 -97.56) rotate(90)"/><path class="cls-5" d="M270.62,96.21H241.39a6.83,6.83,0,0,1-6.8-6.25l-6.26-73.14a6.83,6.83,0,0,1,6.81-7.41h41.74a6.82,6.82,0,0,1,6.8,7.41L277.43,90A6.84,6.84,0,0,1,270.62,96.21Z"/></svg>