<svg id="Layer_1" data-name="Layer 1" xmlns="http://www.w3.org/2000/svg" viewBox="0 0 512 512"><defs><style>.cls-1,.cls-4{fill:#009688;}.cls-2{fill:#444f60;}.cls-3,.cls-5{fill:#4bb7aa;}.cls-4{stroke:#4bb7aa;stroke-miterlimit:10;stroke-width:10px;}.cls-5{font-size:58.58px;font-family:NotoSansEthiopic-Bold, Noto Sans Ethiopic;font-weight:700;}</style></defs><path class="cls-1" d="M222.21,31.07l42.41,25.68,61.45-24.37S298.9,13.54,267.8,10.19C233.58,6.5,216,17.11,216,17.11Z"/><rect class="cls-2" x="200.1" y="97.36" width="111.8" height="23.08" rx="9.59"/><path class="cls-3" d="M214.13,93.4h83.93l36.26-47.89c1.27-5-12.28-25.49-31.18-12.26-22.38,15.68-41,26.39-65.26,2.12,0,0-24.57-31-49.15-20.88-3.61,1.49-9.48,5.62-13.67,10.17a12.52,12.52,0,0,0-.76,16Z"/><path class="cls-1" d="M300.74,124.39H211.26C179.07,198.19,58.92,299.46,61.07,367.74,65.72,515.78,256,502.27,256,502.27s190.28,13.51,194.93-134.53C453.08,299.46,332.93,198.19,300.74,124.39Z"/><circle class="cls-4" cx="256" cy="310.8" r="61.16"/><text class="cls-5" transform="translate(215.34 332.82)">ብር</text></svg>