<svg id="Layer_1" data-name="Layer 1" xmlns="http://www.w3.org/2000/svg" viewBox="0 0 512 512"><defs><style>.cls-1,.cls-5{fill:none;}.cls-1{stroke:#444f60;stroke-width:10px;}.cls-1,.cls-4,.cls-5{stroke-miterlimit:10;}.cls-2{fill:#009688;}.cls-3{fill:#4bb7aa;}.cls-4{fill:#444f60;stroke:#616b7a;stroke-width:3px;}.cls-5{stroke:#009688;stroke-width:5px;}</style></defs><path class="cls-1" d="M467,69.31S582.43,164,374.52,216.37"/><path class="cls-1" d="M377.75,39.72s-158.61,3.6-13,173.55"/><path class="cls-2" d="M374.8,34.06l.6,10.22a3,3,0,0,0,3.48,2.81l2.5-.38a3.06,3.06,0,0,1,2.89,1.19c1.56,2.09,4.77,5.58,8.41,5,5.18-.88,4.81-11.16,4.61-16.41-.17-4.65-.56-14.13-7.78-13.57-2.67.2-5.21,4.14-6.46,6.42a3,3,0,0,1-2.69,1.57l-2.51,0A3,3,0,0,0,374.8,34.06Z"/><path class="cls-2" d="M465,73.88l6.86-7.59a3,3,0,0,0-.43-4.45l-2-1.52a3,3,0,0,1-1.17-2.89c.39-2.58.64-7.32-2.36-9.48-4.25-3.09-11.33,4.38-14.93,8.2-3.2,3.39-9.69,10.3-4.23,15.07,2,1.76,6.6.81,9.1.11a3,3,0,0,1,3,.81L460.54,74A3,3,0,0,0,465,73.88Z"/><path class="cls-2" d="M265.5,239.7h0a83.51,83.51,0,0,0-117.4-4.33A83.5,83.5,0,0,0,30.71,239.7h0a83.51,83.51,0,0,0,4.08,117.69L148.1,463.11,261.42,357.39A83.51,83.51,0,0,0,265.5,239.7Z"/><path class="cls-3" d="M148.1,235.37A83.5,83.5,0,0,0,30.71,239.7h0a83.51,83.51,0,0,0,4.08,117.69L148.1,463.11Z"/><path class="cls-1" d="M371.36,223.75s66.37,175.31-5.68,208.31c-100.34,46-88.85-84.74-200.16-100.55"/><circle class="cls-2" cx="371.36" cy="216.92" r="20.02"/><circle class="cls-3" cx="371.36" cy="216.92" r="13.53"/><circle class="cls-4" cx="148.1" cy="320.15" r="27.16"/><circle class="cls-5" cx="148.1" cy="320.15" r="18.04"/><circle class="cls-2" cx="148.1" cy="320.15" r="7.12"/><ellipse class="cls-3" cx="393.1" cy="37.9" rx="2.15" ry="11.35"/><ellipse class="cls-3" cx="454.71" cy="57.85" rx="11.35" ry="2.15" transform="translate(109.32 359.2) rotate(-48.36)"/></svg>