<svg width="12" height="14" viewBox="0 0 12 14" fill="none" xmlns="http://www.w3.org/2000/svg">
<path d="M11.0733 9.66659C11.0371 9.58556 10.9875 9.5112 10.9267 9.44659L7.84001 6.33325C7.71248 6.22403 7.54843 6.16696 7.38064 6.17344C7.21286 6.17992 7.0537 6.24948 6.93497 6.36821C6.81624 6.48694 6.74669 6.6461 6.74021 6.81388C6.73372 6.98167 6.7908 7.14572 6.90001 7.27325L8.84668 9.21992H4.18001C3.64958 9.21992 3.14087 9.00921 2.7658 8.63413C2.39073 8.25906 2.18001 7.75035 2.18001 7.21992V0.999919C2.18001 0.823108 2.10978 0.653538 1.98475 0.528514C1.85973 0.40349 1.69016 0.333252 1.51335 0.333252C1.33654 0.333252 1.16697 0.40349 1.04194 0.528514C0.916918 0.653538 0.84668 0.823108 0.84668 0.999919V7.24659C0.84668 8.13064 1.19787 8.97849 1.82299 9.60361C2.44811 10.2287 3.29596 10.5799 4.18001 10.5799H8.84668L6.90001 12.5266C6.83753 12.5886 6.78793 12.6623 6.75409 12.7435C6.72024 12.8248 6.70282 12.9119 6.70282 12.9999C6.70282 13.0879 6.72024 13.1751 6.75409 13.2563C6.78793 13.3375 6.83753 13.4113 6.90001 13.4733C6.96231 13.535 7.03618 13.5839 7.11741 13.6171C7.19863 13.6503 7.28561 13.6671 7.37335 13.6666C7.54824 13.6658 7.71584 13.5964 7.84001 13.4733L10.9267 10.3866C10.9898 10.3238 11.0396 10.249 11.0733 10.1666C11.1382 10.0062 11.1382 9.82694 11.0733 9.66659Z" fill="#009688"/>
</svg>
