<svg id="Layer_1" data-name="Layer 1" xmlns="http://www.w3.org/2000/svg" viewBox="0 0 512 512"><defs><style>.cls-1{fill:#009688;}.cls-2{fill:#444f60;}.cls-3{fill:#616b7a;}.cls-4{fill:#4bb7aa;}</style></defs><ellipse class="cls-1" cx="260.08" cy="282.6" rx="14.01" ry="155.23"/><path class="cls-2" d="M274.79,49.61c0,11.31-6.59,20.47-14.71,20.47s-14.7-9.16-14.7-20.47,14.7-36,14.7-36S274.79,38.31,274.79,49.61Z"/><rect class="cls-1" x="47.51" y="110.04" width="3.1" height="142.42" rx="1.41" transform="translate(37.95 368.7) rotate(-161.47)"/><rect class="cls-1" x="93.44" y="105.84" width="3.1" height="142.42" rx="1.41" transform="translate(238.28 317.9) rotate(162.72)"/><path class="cls-2" d="M129.71,232.54c0,24.61-25.5,44.55-57,44.55s-57-19.94-57-44.55Z"/><ellipse class="cls-3" cx="72.75" cy="232.69" rx="56.96" ry="5.95"/><path class="cls-1" d="M164.27,471.09c0-15.22,42.51-27.56,95-27.56s94.95,12.34,94.95,27.56Z"/><rect class="cls-1" x="71.79" y="112.4" width="3.1" height="126.24" rx="1.41" transform="translate(146.69 351.03) rotate(-180)"/><rect class="cls-1" x="461.39" y="110.04" width="3.1" height="142.42" rx="1.55" transform="translate(-33.6 156.56) rotate(-18.53)"/><rect class="cls-1" x="345.8" y="175.5" width="142.42" height="3.1" rx="1.55" transform="matrix(0.3, -0.95, 0.95, 0.3, 124.09, 522.66)"/><path class="cls-2" d="M382.29,232.54c0,24.61,25.5,44.55,57,44.55s57-19.94,57-44.55Z"/><ellipse class="cls-3" cx="439.25" cy="232.69" rx="56.96" ry="5.95"/><rect class="cls-1" x="437.11" y="112.4" width="3.1" height="126.24" rx="1.41"/><path class="cls-1" d="M151.09,475.29H367.36a24.89,24.89,0,0,1,24.89,24.89v2.41a0,0,0,0,1,0,0H126.2a0,0,0,0,1,0,0v-2.41A24.89,24.89,0,0,1,151.09,475.29Z"/><rect class="cls-4" x="240.83" y="371.79" width="38.5" height="16.66" rx="7.6"/><rect class="cls-4" x="244.55" y="391.86" width="31.06" height="12.52" rx="5.71"/><path class="cls-1" d="M321.66,51.4c-14.91,0-26.47,2.56-35.44,6.36a36.81,36.81,0,0,0-54.74,2.75c-9.6-5.27-22.85-9.1-41.14-9.11C138.41,51.38,72.75,94,72.75,94v5.71S115.22,72.3,179.89,72.3a127,127,0,0,1,43.54,7.82c-.11,1.18-.17,2.37-.17,3.57a36.83,36.83,0,1,0,73.65,0,37.68,37.68,0,0,0-.52-6.14,125.51,125.51,0,0,1,35.72-5.25c64.67,0,107.14,27.44,107.14,27.44V94S373.59,51.38,321.66,51.4ZM260.08,97.3a13.61,13.61,0,1,1,13.61-13.61A13.6,13.6,0,0,1,260.08,97.3Z"/><path class="cls-2" d="M85.71,97c0,10.94-5.8,19.81-13,19.81s-13-8.87-13-19.81,13-19.82,13-19.82S85.71,86.06,85.71,97Z"/><path class="cls-2" d="M426.29,97c0,10.94,5.8,19.81,13,19.81s13-8.87,13-19.81-13-19.82-13-19.82S426.29,86.06,426.29,97Z"/></svg>