<svg id="Layer_1" data-name="Layer 1" xmlns="http://www.w3.org/2000/svg" viewBox="0 0 100 100"><defs><style>.cls-1{fill:#009688;fill-rule:evenodd;}</style></defs><title>linkedin</title><path class="cls-1" d="M50,1A49,49,0,1,1,1,50,49,49,0,0,1,50,1ZM44.643,41.832h8.5v4.355h.123a9.419,9.419,0,0,1,8.39-4.356c8.971,0,10.63,5.583,10.63,12.846V69.472h-8.86V56.357c0-3.126-.065-7.15-4.607-7.15-4.613,0-5.32,3.4-5.32,6.923V69.472H44.643V41.832ZM38.5,34.155a4.607,4.607,0,1,1-4.607-4.607A4.609,4.609,0,0,1,38.5,34.155Zm-9.214,7.677H38.5v27.64H29.287Z"/></svg>