<svg id="Layer_1" data-name="Layer 1" xmlns="http://www.w3.org/2000/svg" viewBox="0 0 512 512"><defs><style>.cls-1{fill:#4bb7aa;}.cls-2{fill:#009688;}.cls-3,.cls-5,.cls-6{fill:none;stroke-miterlimit:10;}.cls-3,.cls-5{stroke:#444f60;}.cls-3{stroke-width:7px;}.cls-4{fill:#616b7a;}.cls-5,.cls-6{stroke-width:5px;}.cls-6{stroke:#616b7a;}</style></defs><circle class="cls-1" cx="248.26" cy="55.68" r="36.98"/><path class="cls-2" d="M405.77,376.08l-84-121.4a12,12,0,0,1-2.14-6.85V197.29H192.34v50.54a12,12,0,0,1-2.14,6.85l-84,121.4c-52.59,76.26,0,116.19,58.1,116.19H347.67C405.77,492.27,458.36,452.34,405.77,376.08Z"/><ellipse class="cls-1" cx="256" cy="197.93" rx="63.66" ry="9.36"/><path class="cls-3" d="M405.77,376.08l-84-121.4a12,12,0,0,1-2.14-6.85V70.66a12,12,0,0,0-12-12H204.38a12,12,0,0,0-12,12V247.83a12,12,0,0,1-2.14,6.85l-84,121.4c-52.59,76.26,0,116.19,58.1,116.19H347.67C405.77,492.27,458.36,452.34,405.77,376.08Z"/><rect class="cls-4" x="170.29" y="48.4" width="171.43" height="20.44" rx="8.42"/><ellipse class="cls-5" cx="257.57" cy="380.68" rx="18.75" ry="60.49" transform="translate(-201.87 367.52) rotate(-54.28)"/><ellipse class="cls-5" cx="257.57" cy="380.68" rx="60.49" ry="18.75" transform="translate(-173.8 222.01) rotate(-35.72)"/><ellipse class="cls-5" cx="257.57" cy="380.68" rx="18.75" ry="60.49"/><circle class="cls-4" cx="269.21" cy="332.6" r="6.45"/><circle class="cls-4" cx="289.21" cy="417.25" r="6.45"/><circle class="cls-4" cx="210.56" cy="401.48" r="6.45"/><circle class="cls-6" cx="257.57" cy="380.68" r="6.45"/><circle class="cls-1" cx="280.98" cy="123.84" r="18.22"/><circle class="cls-1" cx="275.66" cy="231.38" r="12.55"/><circle class="cls-1" cx="248.26" cy="262.7" r="9.2"/><circle class="cls-1" cx="244.67" cy="164.71" r="10.47"/></svg>