<svg xmlns="http://www.w3.org/2000/svg" viewBox="0 0 311.77 200.45"><defs><style>.cls-1{fill:#f5f5f5;}.cls-2{fill:#e0e0e0;}.cls-3{fill:#ebebeb;}.cls-4,.cls-5{fill:#444f60;}.cls-4{opacity:0.32;}.cls-6{fill:#455a64;}.cls-7{fill:#fff;}.cls-8{fill:#33aba0;}.cls-9{fill:#009688;}.cls-10{fill:#007166;}.cls-11{fill:#00554d;}</style></defs><g id="Background_Complete" data-name="Background Complete"><path class="cls-1" d="M41,143c3.66-2.31,5-5.31,5.6-9.6a15.24,15.24,0,0,0-3.65-12.06c-2.4-2.69-5.8-4.55-7.53-7.71-1.85-3.38-1.58-7.85-4.24-10.64-1.82-1.91-4.59-2.53-6.86-3.9a47.46,47.46,0,0,1-5-4.09,9.26,9.26,0,0,0-5.84-2.46c-3.26.09-5.93,3.16-6.23,6.4a10.86,10.86,0,0,0,3.74,8.66c1.73,1.61,3.89,2.88,5,5,2,3.94-.52,9.16,1.68,13,1.61,2.81,5.48,4.3,5.88,7.52a22.46,22.46,0,0,1-.29,3.55c-.14,3.72,3.2,6.88,6.83,7.71S37.43,144.23,41,143" transform="translate(-7.16 -7.63)"/><path class="cls-2" d="M19.85,105.94a2.53,2.53,0,0,0,.37.46c.28.31.66.72,1.12,1.24s1.09,1.18,1.74,2,1.44,1.67,2.2,2.72L26.51,114c.42.56.81,1.18,1.25,1.81.89,1.24,1.71,2.64,2.6,4.1a77.48,77.48,0,0,1,4.87,10,77.13,77.13,0,0,1,3.27,10.63c.35,1.68.7,3.27.9,4.78.11.75.25,1.48.32,2.18s.15,1.37.21,2c.17,1.29.19,2.46.25,3.49s.09,1.91.09,2.63,0,1.25,0,1.67a3.35,3.35,0,0,0,0,.59,2.65,2.65,0,0,0,.05-.58q0-.65.06-1.68c0-.72,0-1.61,0-2.64s0-2.21-.18-3.51c-.06-.65-.12-1.33-.18-2s-.2-1.44-.3-2.2c-.19-1.52-.53-3.12-.86-4.8a77.51,77.51,0,0,0-3.26-10.71,77,77,0,0,0-4.93-10c-.91-1.46-1.75-2.87-2.66-4.1-.44-.63-.84-1.25-1.28-1.81l-1.25-1.61c-.78-1-1.59-1.9-2.26-2.68S22,108,21.46,107.52l-1.18-1.19A3.41,3.41,0,0,0,19.85,105.94Z" transform="translate(-7.16 -7.63)"/><path class="cls-3" d="M316.64,59.5s-4.67-3.09-10.35,8.07a145.37,145.37,0,0,0-7.85,17.6s-1.5,2.33-3.11.8-3.8-5.86-6.53-5.08-3.77,4-3.23,8.61,1.35,14.86,1.42,15.79-.45,2.24-1.71,1.38-8.51-9-12.14-5.28,0,16.36.37,17.76.1,2-.56,2.33-2.85-2.6-5-4.81-5-4.4-7-2.11-2.53,11.82,6.53,27.28l4.67,6.89,8.35-.46c17.8-2.08,25-8.31,25.71-11.22s-2.81-3.9-5.88-4.28-6.73-.36-6.85-1.1.19-1.31,1.52-1.86,13.65-5.28,14.4-10.39-10.07-6-11.52-6.52-.7-1.7.07-2.2,9.42-6,13.45-8.37,6-5,4.94-7.76-5.81-1.79-8-2.16-1.22-3-1.22-3a144.21,144.21,0,0,0,9.32-16.85c5.48-11.26.07-13.15.07-13.15" transform="translate(-7.16 -7.63)"/><path class="cls-2" d="M311.53,69.48s0,.08-.11.24-.18.4-.32.7l-1.28,2.67c-1.11,2.32-2.74,5.67-4.77,9.8-4.06,8.25-9.77,19.6-16.11,32.13s-12.07,23.86-16.17,32.1c-2,4.11-3.7,7.44-4.84,9.75l-1.32,2.65c-.15.3-.27.52-.35.69l-.13.23a2.52,2.52,0,0,1,.1-.24l.33-.7c.3-.62.72-1.52,1.27-2.67,1.12-2.32,2.75-5.67,4.78-9.8,4.06-8.25,9.76-19.61,16.1-32.13S300.78,91,304.88,82.8c2.05-4.11,3.7-7.44,4.85-9.75.57-1.14,1-2,1.32-2.65l.35-.69Z" transform="translate(-7.16 -7.63)"/><path class="cls-2" d="M291.63,87.08a2.82,2.82,0,0,1,.21.57c.12.36.28.9.47,1.56.38,1.34.85,3.19,1.34,5.24s.89,3.85,1.22,5.26c.15.63.28,1.16.38,1.59a2.63,2.63,0,0,1,.12.59,3.17,3.17,0,0,1-.22-.57c-.11-.37-.27-.9-.46-1.57-.36-1.33-.81-3.19-1.3-5.24s-.92-3.85-1.26-5.25q-.22-.95-.39-1.59A2.24,2.24,0,0,1,291.63,87.08Z" transform="translate(-7.16 -7.63)"/><path class="cls-2" d="M296.13,102c0-.07,3.76-1.21,8.43-2.55s8.48-2.38,8.5-2.31-3.75,1.21-8.43,2.56S296.15,102.1,296.13,102Z" transform="translate(-7.16 -7.63)"/><path class="cls-2" d="M285.53,120.83a2.47,2.47,0,0,1,.61,0h1.67c1.41,0,3.36,0,5.51-.08s4.09-.22,5.49-.33l1.67-.13a2.58,2.58,0,0,1,.61,0,2.43,2.43,0,0,1-.6.12c-.39.06-1,.13-1.66.21-1.4.16-3.35.33-5.5.41s-4.11.06-5.52,0l-1.67-.09A4,4,0,0,1,285.53,120.83Z" transform="translate(-7.16 -7.63)"/><path class="cls-2" d="M278.48,108.2a2.53,2.53,0,0,1,.33.46c.21.36.48.8.8,1.32.67,1.12,1.58,2.67,2.57,4.4s1.88,3.29,2.51,4.43l.73,1.36a2.26,2.26,0,0,1,.24.51,2.29,2.29,0,0,1-.32-.46l-.81-1.32c-.67-1.12-1.58-2.67-2.57-4.4s-1.88-3.29-2.51-4.43c-.29-.53-.53-1-.73-1.36A2.05,2.05,0,0,1,278.48,108.2Z" transform="translate(-7.16 -7.63)"/><path class="cls-2" d="M267,123.6a3.27,3.27,0,0,1,.41.6l1,1.68c.87,1.43,2.05,3.41,3.34,5.61s2.45,4.19,3.28,5.65l1,1.72a4.76,4.76,0,0,1,.33.65,3.27,3.27,0,0,1-.41-.6l-1-1.68c-.87-1.43-2.05-3.41-3.34-5.61s-2.45-4.19-3.28-5.65c-.39-.69-.71-1.27-1-1.72A3.49,3.49,0,0,1,267,123.6Z" transform="translate(-7.16 -7.63)"/><path class="cls-2" d="M276.25,139.07a3.76,3.76,0,0,1,.78,0l2.12-.07c1.78-.06,4.25-.16,7-.34s5.18-.39,7-.57l2.11-.2a4.11,4.11,0,0,1,.78-.05,4.31,4.31,0,0,1-.77.15l-2.1.28c-1.78.22-4.24.48-7,.65s-5.2.25-7,.26H277A4.92,4.92,0,0,1,276.25,139.07Z" transform="translate(-7.16 -7.63)"/></g><g id="Plant"><ellipse class="cls-4" cx="146.65" cy="194.29" rx="117.88" ry="6.16"/></g><g id="Device"><path class="cls-5" d="M263.61,7.63H45.39a6.81,6.81,0,0,0-6.81,6.81V168.58a6.81,6.81,0,0,0,6.81,6.81h83.75s5.33,16.47-11.19,25h78.32s-18.65-6.39-13.85-25h81.19a6.81,6.81,0,0,0,6.81-6.81V14.44A6.81,6.81,0,0,0,263.61,7.63Z" transform="translate(-7.16 -7.63)"/><path class="cls-6" d="M157.41,159.18c3,4.24-1.67,8.89-5.92,5.92a1.58,1.58,0,0,1-.36-.37c-3-4.24,1.68-8.88,5.92-5.92A1.41,1.41,0,0,1,157.41,159.18Z" transform="translate(-7.16 -7.63)"/><rect class="cls-2" x="36.34" y="9.24" width="221.54" height="131.41" rx="3.27"/><rect class="cls-7" x="36.34" y="18.87" width="221.54" height="121.78"/><path class="cls-6" d="M61.67,22a1.77,1.77,0,1,1-1.77-1.77A1.77,1.77,0,0,1,61.67,22Z" transform="translate(-7.16 -7.63)"/><path class="cls-6" d="M51,22a1.77,1.77,0,1,1-1.77-1.77A1.77,1.77,0,0,1,51,22Z" transform="translate(-7.16 -7.63)"/><path class="cls-6" d="M56.1,22a1.77,1.77,0,1,1-1.77-1.77A1.78,1.78,0,0,1,56.1,22Z" transform="translate(-7.16 -7.63)"/></g><g id="Magnifying_glass" data-name="Magnifying glass"><rect class="cls-8" x="48.07" y="171.87" width="6.48" height="20.99" transform="translate(-121.08 82.07) rotate(-45)"/><rect class="cls-8" x="104.86" y="115.08" width="6.48" height="20.99" transform="translate(-64.29 105.59) rotate(-45)"/><rect class="cls-9" x="42.79" y="145.81" width="73.83" height="16.32" transform="translate(-92.69 93.83) rotate(-45)"/><rect class="cls-8" x="109.25" y="116.71" width="7.81" height="7.63" transform="translate(-59.24 107.68) rotate(-45)"/><path class="cls-9" d="M187.17,46.51a48.18,48.18,0,1,0,10.63,16,48,48,0,0,0-10.63-16M113.08,120.6A56.23,56.23,0,1,1,131.74,133a56.09,56.09,0,0,1-18.66-12.39" transform="translate(-7.16 -7.63)"/><rect class="cls-10" x="51.79" y="180.82" width="6.48" height="10.5" transform="translate(-122.62 85.78) rotate(-45)"/><polygon class="cls-10" points="110.66 123.07 103.23 115.65 98.65 120.23 104.42 126 106.07 127.66 110.66 123.07"/><rect class="cls-10" x="45.68" y="152.77" width="73.83" height="8.16" transform="translate(-93.88 96.71) rotate(-45)"/><path class="cls-11" d="M115.87,123.21q-1.44-1.26-2.79-2.61l-2.69,2.68,2.7,2.7Z" transform="translate(-7.16 -7.63)"/><path class="cls-10" d="M192.84,40.84l-5.67,5.67a48.38,48.38,0,1,1-68.42,68.42l-5.67,5.67c.9.9,1.72,1.89,2.67,2.72a56.48,56.48,0,0,0,77.09-82.48" transform="translate(-7.16 -7.63)"/><path class="cls-10" d="M171,96.92,156.62,82.58,171,68.23a2.58,2.58,0,0,0-3.65-3.66L153,78.92,138.61,64.57a2.6,2.6,0,0,0-3.65,0h0a2.59,2.59,0,0,0,0,3.66L149.3,82.58,135,96.92a2.58,2.58,0,0,0,3.65,3.66L153,86.23l14.35,14.35a2.6,2.6,0,0,0,3.65,0h0A2.59,2.59,0,0,0,171,96.92Z" transform="translate(-7.16 -7.63)"/><path class="cls-9" d="M173.68,96.92,159.33,82.58l14.35-14.35A2.59,2.59,0,1,0,170,64.57L155.68,78.92,141.33,64.57a2.6,2.6,0,0,0-3.65,0h0a2.59,2.59,0,0,0,0,3.66L152,82.58,137.68,96.92a2.58,2.58,0,1,0,3.65,3.66l14.35-14.35L170,100.58a2.61,2.61,0,0,0,3.66,0h0A2.59,2.59,0,0,0,173.68,96.92Z" transform="translate(-7.16 -7.63)"/></g></svg>