<svg id="Layer_1" data-name="Layer 1" xmlns="http://www.w3.org/2000/svg" viewBox="0 0 512 512"><defs><style>.cls-1{fill:#009688;}.cls-2{fill:#4bb7aa;}.cls-3,.cls-4{fill:#444f60;}.cls-3{stroke:#616b7a;stroke-miterlimit:10;stroke-width:3px;}.cls-5{fill:#616b7a;}</style></defs><path class="cls-1" d="M464.58,376.5h-6.05l-39.42-53.08a62.15,62.15,0,0,0-49.39-25.08l-23.42-.18a7.88,7.88,0,0,0-7.94,7.88V454.91h136.3a10.77,10.77,0,0,0,10.77-10.76v-35.8C485.43,395.18,485.46,387,464.58,376.5Zm-78.94,12.43H373.06a1.89,1.89,0,0,1,0-3.78h12.58a1.89,1.89,0,0,1,0,3.78Zm-14.47-16.87V327.13h38.22a12.37,12.37,0,0,1,9.94,5L449,372.06Z"/><path class="cls-1" d="M99.86,311.62h231.2a0,0,0,0,1,0,0V454.91a0,0,0,0,1,0,0H84.44a3.58,3.58,0,0,1-3.58-3.58V330.63A19,19,0,0,1,99.86,311.62Z"/><path class="cls-2" d="M80.85,383.26H331.06a0,0,0,0,1,0,0v71.64a0,0,0,0,1,0,0H84.44a3.58,3.58,0,0,1-3.58-3.58V383.26A0,0,0,0,1,80.85,383.26Z"/><circle class="cls-3" cx="143.86" cy="454.91" r="32.37"/><circle class="cls-1" cx="143.86" cy="454.91" r="13.63"/><circle class="cls-3" cx="407.5" cy="454.91" r="32.37"/><path class="cls-4" d="M463.47,81C454.28,68.74,393,61.6,356.23,81L256,132.83,86,81.71a7.75,7.75,0,0,0-9.46,10.21L86,116.44a24.89,24.89,0,0,0,11.2,12.83l87.09,54.44L83.55,247.47l-50-16.6a11.25,11.25,0,0,0-12,3.25l-5.43,6.16a9.7,9.7,0,0,0,.43,13.27l36.24,36.27a28.61,28.61,0,0,0,20.12,8.38l32.81.16a57.58,57.58,0,0,0,25.83-6L389.94,164.58C454.28,130,472.66,93.26,463.47,81ZM407,81.77c-4.77.33-11.05-3.6-13.53-9.37a141.69,141.69,0,0,1,43.4.6S421.68,80.74,407,81.77Z"/><path class="cls-5" d="M463.47,81c-3.64-4.9-15.21-7.83-15.21-7.83l15.45,25S468.23,87.43,463.47,81Z"/><rect class="cls-3" x="74.7" y="428.74" width="24" height="17.8" rx="2.89"/><rect class="cls-3" x="466.54" y="428.74" width="24" height="17.8" rx="2.89"/><circle class="cls-1" cx="407.5" cy="454.91" r="13.63"/></svg>